<?xml version="1.0" encoding="utf-8"?>
<!-- Generator: Adobe Illustrator 22.1.0, SVG Export Plug-In . SVG Version: 6.00 Build 0)  -->
<svg version="1.1" id="Capa_1" xmlns="http://www.w3.org/2000/svg" xmlns:xlink="http://www.w3.org/1999/xlink" x="0px" y="0px"
	 viewBox="0 0 1080 1920" style="enable-background:new 0 0 1080 1920;" xml:space="preserve">
<style type="text/css">
	.st0{fill:none;stroke:#2A76B4;stroke-width:35.05;stroke-miterlimit:10;}
	.st1{fill:#080808;}
	.st2{fill:#C8C7C6;}
	.st3{fill:#B8BAB9;}
	.st4{fill:#11110E;}
	.st5{fill:#C8C6C5;}
	.st6{fill:#CDCDCD;}
	.st7{fill:#696C6B;}
	.st8{fill:#E1E1E0;}
	.st9{fill:#3A4546;}
	.st10{fill:#424D50;}
	.st11{fill:#616C6B;}
	.st12{fill:#BFABAD;}
	.st13{fill:#3A4341;}
	.st14{fill:#9D3146;}
	.st15{fill:#AB898D;}
	.st16{fill:#636D6D;}
	.st17{fill:#727A79;}
	.st18{fill:#B9BBB9;}
	.st19{fill:#C3C4C2;}
	.st20{fill:#6F7673;}
	.st21{fill:#EFDDCE;}
	.st22{fill:#EBCA8A;}
	.st23{fill:#FEFEFE;}
	.st24{fill:#D7C4A3;}
	.st25{fill:#E8DECB;}
	.st26{fill:#EFDECE;}
	.st27{fill:#C3B18D;}
	.st28{fill:#E0D3B9;}
	.st29{fill:#DDCEB3;}
	.st30{fill:#FDFDFD;}
	.st31{fill:url(#SVGID_1_);}
	.st32{fill:#DACAAD;}
	.st33{fill:#E3D5BF;}
	.st34{fill:#D0BC98;}
	.st35{fill:#D6C3A4;}
	.st36{fill:#FCFCFB;}
	.st37{fill:#EACA8A;}
	.st38{fill:#D7C8AD;}
	.st39{fill:#DBCBAD;}
	.st40{fill:#C2AE89;}
	.st41{fill:#FBFBFA;}
	.st42{fill:#E5A9A2;}
	.st43{fill:#E9CA89;}
	.st44{fill:#FAFAFA;}
	.st45{fill:#AA956B;}
	.st46{fill:#CDBB9A;}
	.st47{fill:#E9CA8A;}
	.st48{fill:#A79368;}
	.st49{fill:#F9F9F9;}
	.st50{fill:#CBBA9A;}
	.st51{fill:#EFDDCF;}
	.st52{fill:#B9A67E;}
	.st53{fill:#C1AE8D;}
	.st54{fill:#D56A71;}
	.st55{fill:#ECEDEC;}
	.st56{fill:#EDCBC0;}
	.st57{fill:#5D6154;}
	.st58{fill:#F2E9B6;}
	.st59{fill:#E2C161;}
	.st60{fill:#535652;}
	.st61{fill:#757473;}
	.st62{fill:#BEAA83;}
	.st63{fill:#10100F;}
	.st64{fill:#11100F;}
	.st65{fill:#1B1B18;}
	.st66{fill:#E5E4E2;}
	.st67{fill:#E1DFDE;}
	.st68{fill:#5A6262;}
	.st69{fill:#2B2F2F;}
	.st70{fill:#5D6565;}
	.st71{fill:#576162;}
	.st72{fill:#905058;}
	.st73{fill:#1C1E1E;}
	.st74{fill:#A64659;}
	.st75{fill:#BA9495;}
	.st76{fill:#F7F6F6;}
	.st77{fill:#D9D8D6;}
	.st78{fill:#CECECE;}
	.st79{fill:#E3E2E2;}
	.st80{fill:#8C2534;}
	.st81{fill:#151819;}
	.st82{fill:#282F30;}
	.st83{fill:#989F9F;}
	.st84{fill:#A77278;}
	.st85{fill:#DEDDDD;}
	.st86{fill:#464F4D;}
	.st87{fill:#9D5762;}
	.st88{fill:#A55462;}
	.st89{fill:#A46E76;}
	.st90{fill:#A05C67;}
	.st91{fill:#A36870;}
	.st92{fill:#A56470;}
	.st93{fill:url(#SVGID_2_);}
	.st94{fill:#E4C76F;}
	.st95{fill:#E2BF5D;}
	.st96{fill:#8D2338;}
	.st97{fill:#B44B5B;}
	.st98{fill:#C1A7A8;}
	.st99{fill:#0C0C0B;}
	.st100{fill:#0A0A0A;}
	.st101{fill:#090909;}
	.st102{fill:#0E0E0D;}
	.st103{fill:#E2A8A1;}
	.st104{fill:#F8F5F1;}
	.st105{fill:#F8F4ED;}
	.st106{fill:#0E0E0E;}
	.st107{fill:#151514;}
	.st108{fill:#161614;}
	.st109{fill:#1D1C19;}
	.st110{fill:#0F0F0E;}
	.st111{fill:#C4B393;}
	.st112{fill:#AE9A70;}
	.st113{fill:#AE996E;}
	.st114{fill:#C3B291;}
	.st115{fill:#C4B18E;}
	.st116{fill:#C5B492;}
	.st117{fill:#1C1B18;}
	.st118{fill:#BAA682;}
	.st119{fill:#9C8759;}
	.st120{fill:#A69267;}
	.st121{fill:#ABACAB;}
	.st122{fill:#4B5051;}
	.st123{fill:#969998;}
	.st124{fill:#626968;}
	.st125{fill:#94999A;}
	.st126{fill:#202A2C;}
	.st127{fill:#8F9493;}
	.st128{fill:#1E282A;}
	.st129{fill:#575D5F;}
	.st130{fill:#2D3537;}
	.st131{fill:#BBB9B7;}
	.st132{fill:#222B2E;}
	.st133{fill:#4A5254;}
	.st134{fill:#C4C5C5;}
	.st135{fill:#989A9A;}
	.st136{fill:#303433;}
	.st137{fill:#5E6668;}
	.st138{fill:#7D8484;}
	.st139{fill:#8E9495;}
	.st140{fill:#515A5A;}
	.st141{fill:#596164;}
	.st142{fill:#D26E4E;}
	.st143{fill:#DCA58F;}
	.st144{fill:#DB876A;}
	.st145{fill:#AE9B73;}
	.st146{fill:#B09D76;}
	.st147{fill:#070707;}
	.st148{fill:#151C1E;}
</style>
<circle class="st0" cx="440" cy="1030.7" r="321.3"/>
<g>
	<path class="st1" d="M630.9,1269.6c-2.9,5.2-7.1,9.4-10.9,13.9c-0.1,0.1-0.2,0.2-0.3,0.3c24.1-11.9,45.4-28.3,62.3-51.7
		c2-3.1,3.9-6,5.7-8.9c-7.2,4-13.8,9.2-20.5,13.8C653.8,1246.1,642.3,1257.9,630.9,1269.6z"/>
	<path class="st1" d="M1020.7,922.6c-3.6-3.4-7.5-6.5-11.5-9.3c-6.9-4.8-9.7-12.7-14.6-18.9c-1.9-2.5-3-6.4-4.9-9.2
		c-5.8-8.4-13.5-15.5-22.4-20c-9.5-4.7-20-6.6-29,2.4c-0.9,0.9-2.3,0.9-2.7-0.1c-2-5-6.9-7-10.8-9.8c-3-2.1-5.2-5.8-9.1-6.3
		c-4.3-0.6-7.7-4-12.3-3.7c-1.3,0.1-1.2-1.3-1.7-2.2c-2.9-5.2-3-11.5-6.9-16.4c-2.9-3.6-4.7-7.9-8.9-10.7c-3.7-2.4-6.3-6.2-11-7.3
		c-4.6-1.1-9.2-2.2-14-2.4c-6.2-0.4-11.8-3.5-18.7-0.4c-5.7,2.6-12,3.3-16.9,8.2c-2.1,2.1-3.7,4.9-6.3,6.6c-3.5,2.3-6.4,5.2-9,8.5
		c-3.2,4.1-6.3,8.2-9.3,12.4c-3.2,4.5-8.7,6.2-14.4,7.6c-13,3.2-21.3,12.1-25.3,24.9c-0.3,0.9-0.8,1.3-1.6,1.9
		c-4.8,3.3-10.4,4.8-15.5,7.9c-8.5,5.2-13.9,12.4-19.5,19.9c-0.8,1-1.1,2.7-0.5,4.5c2.4,6.3,3.2,13.2,7.6,18.8
		c0.7,0.9,0.9,3.1-0.8,2.6c-3.3-1-5.6,1.2-7.7,2.3c-8.9,4.3-16.4,10.4-18.8,20.8c-0.9,3.9-1.5,8-5,10.6c-3.6,2.6-7.6,4.5-11.2,7.2
		c-6.9,5.2-14.4,9.7-21.2,15.1c-7.8,6.1-14.8,13.1-21.7,20.2c-1.3,1.4-3,1.7-3.7-0.4c-1.6-4.7-5.2-8.3-6.8-12.8
		c-2.2-6.1-3.9-12.7-7.1-18.1c-3.7-6.2-5.2-13.2-8.8-19.4c-5.4-9.4-7.8-20.1-13.3-29.5c-1.9-1.8-3.8-2.6-5.8-0.3
		c-2.3,2.7-2.2,5.9-0.2,8.3c4.9,5.6,6.5,12.6,9.4,19c3.7,8.2,5.4,17.4,11.6,24.5c0.6,0.7,1.1,1.5,1,2.4c-0.9,8.2,4.3,14.2,7.8,20.6
		c3.1,5.6,4.9,11.6,7,17.4c1.3,3.7,2.9,7.8,1.7,12.2c-0.7,2.5-0.9,3.4-4,3.8c-6.5,0.8-13,2.6-18.6,6.3c-2.3,1.5-4.3,2.5-7.2,2.4
		c-7.5-0.1-7.9,0.5-7.3,8.1c0.1,1.2,0.3,2.4,0.5,3.6c1.4,6.9,4.1,8.1,10.1,4.5c0.8-0.5,1.7-0.5,2.5-0.9c2.3-1,4-2.9,6-4.3
		c8.1-5.4,16.8-8.4,26.8-7.1c4.5,0.6,7.9,3.4,11,5.9c8.3,6.5,15.4,14,12.8,26.2c-1.4,6.4-4.5,11.4-9,16.2
		c-9.9,10.6-22.5,13.4-36,14.1c-4.4,0.2-8.6-1.9-12.9-2.4c-5.4-0.6-7.9,3-5.7,7.9c0.5,1.1,1.2,2.1,1.9,3.1c1.6,2.1,1.6,4.1-0.3,6.2
		c-6.8,7.6-14.1,14.9-22.8,20c-10.5,6.2-20.5,13.3-32,18.2c-12.8,5.5-25.5,10.7-39.4,12.4c-4.2,0.5-8.6,0-12.5,1.3
		c-13.6,4.8-27.6,3.7-41.6,2.8c-3.8-0.2-7.6,0.7-11.5-0.3c-11.6-2.8-22.5-7.3-33.3-12.3c-3.9-1.8-3.7-3.8-1.6-6.4
		c5.2-6.5,7.3-13.7,6.1-21.9c-4.3-6-8.3-6.5-11.8-1.5c-9.1,14.4-19.2,20.8-34.2,18.6c-3.1-0.5-6-1.8-9.2-1.9
		c-6.1-2.4-8.5-7.8-10.8-13.3c-0.2-0.4-0.3-0.9-0.5-1.3c0-3.8-4.2-7.9,0.6-11.5c5.1-8.4,12.4-13.4,22.1-15.3
		c5.8-1.1,10.8-0.3,15,3.9c1.4,1.4,2.6,3,4.9,2c2.5-1.1,3-3.1,2.9-5.6c-0.1-3.2-0.9-6.3-3.6-7.8c-8.8-4.7-16.9-12.1-28.2-6.9
		c-2.9,1.3-5,0.4-6-3.5c-3.1-12.1-1-24.4-2.1-36.5c0-0.3,0.1-0.7,0.2-1c2.4-10.3,3.7-20.8,6.5-31c2.5-9.1,5.4-18.2,12.2-25.3
		c1.3-2,2.8-4.3-0.1-5.8c-3.7-1.9-2.2-4.5-1-6.5c1.4-2.1,1.8-4.4,2.6-6.7c1.1-3.3,1-7,3.2-9.9c3.8-5.7,5.6-12.3,7.9-18.6
		c0.9-1.7,0.8-3.7,1.6-5.5c1.4-3.8,3.9-7.1,5-11c2.5-9.9,8.5-18.7,9.5-29.1c1-7.9,5.2-14.9,6.2-22.8c0.5-8.7,2.1-17.3,2.1-26.1
		c0.1-0.5,0.2-1,0.2-1.5c-0.2-4.3-0.9-8.7,0.7-12.9c-0.7-5.5-2.7-10.8-4-16.2c-0.9-3.6-0.3-7.4-2-10.8c-2.5-5.1-3.7-10.6-5.8-15.8
		c-3.5-8.8-8.2-17.2-15-23.8c-3.4-3.3-7-6.4-12-8.1c-5-1.7-9.8-2.2-14.9-2.1c-6.7,0.1-13,0.8-18.7,5.4c-5.5,4.5-9.9,9.4-13.8,15.5
		c-7.9,12.6-7.1,24.6-0.7,37.3c3.9,7.8,9.1,14.5,15.4,20.4c1.2,1.1,1.8,2.5-0.4,3.1c-8.1,1.9-16.6,4-23.9-0.9
		c-13.6-9-21.9-21.4-21.5-38.6c0.1-4.6,1.4-9,1.7-13.6c0.1-4,3.1-7.1,3.5-10.9c0.2-0.4,0.3-0.9,0.5-1.3c3.4-5.3,5.4-11.6,11-15.2
		c2.9-3.3,6.3-6.1,9-9.6c1.1-1.4,2.6-2.8,4.4-2.6c3.8,0.4,6.7-1.5,9.9-2.9c4.3-1.8,8.8-3.8,13.6-3.4c11.6,0.8,23.2-1,34.9,1.9
		c11,2.8,21,7.5,30.4,13.4c7.5,4.8,13.6,11.3,19.5,18.1c7,8,13.3,16.2,17.7,26c2,4.3,4.2,8.5,6.7,12.5c3,4.8,6.2,4.9,10.3,1.2
		c2-1.8,4-3.5,5.2-5.9c4.4-8.7,10.3-16.8,11-27c0.2-2.5,0.9-5,3.5-6.8c3.2,7.3,4,14.8,7.5,21.4c0.6,1.2,0.6,2.7,0.8,4.1
		c0.9,5.1,2.4,9.9,5.9,13.9c3.8,4.4,7.6,4.7,11.5,0.5c2.5-2.6,5.6-4.1,8.6-5.9c4.2-2.6,8-5.5,10.7-9.9c5.1-8.1,11.3-15.3,18.7-21.4
		c1.5,1.3,1.7,2.6,1.4,3.8c-1.3,6.7,0,13.3,0,20c0,6.6-0.2,13.5,3.1,19.6c3.4,6.3,7,6.7,11.6,1.4c1.5-1.7,3.2-3.3,4.1-5.4
		c6-14.4,18.2-23.3,29.9-32.6c5.8-4.6,13.7-5.2,19.7-9.6c-12.1,8.8-19.1,21.1-24.8,34.5c-2.8,6.6-3.7,14-8.4,19.7
		c-3,9.6-7.7,18.9-6.6,29.5c-0.3,1.9-0.4,3.9,0,5.8c2,3.7,4.3,7.3,2.1,11.8c-0.3,0.6-0.2,1.4,0.1,2.1c2.2,5.8,0.5,12.6,4.4,18.1
		c0.5,0.7,1,1.8,0.7,2.5c-2,5.6,1.9,10,3,15c0.4,1.7,0.9,3.8,3.1,3.7c2-0.1,2.6-2.1,3.1-3.8c0.2-0.8-0.1-1.8,0.5-2.5
		c0.2-0.8,0.9-1.9,0.6-2.5c-2.5-6-3.3-12.5-4.7-18.8c-0.9-3.7-1.7-7.3-2.8-10.9c-2.3-7.4,0-14.9-0.3-22.3c-0.2-4.6,0.5-9.8,2.7-13.7
		c4.8-8.3,3.9-18.7,10.5-26.2c0.3-0.3,0.2-1,0.3-1.5c0.3-4.8,3.1-8.7,5.2-12.8c2.3-4.6,6.5-8,9.5-12.1c6.6-9,14.2-16.6,24.9-19.6
		c3.5-1,7-4.3,11.7-1.7c3.2,1.8,6.3-2.4,5.9-6.2c-0.7-6.2-6.8-5-9.5-5.4c-9.5-1.5-19.1-2.1-28.9,1.3c-9.1,3.1-17.8,6.6-25.9,11.5
		c-12.2,7.4-21.9,17.6-30.6,28.8c-0.8,1.1-1,2.6-2.9,2.3c-2.2-0.3-1.5-1.9-1.6-3.2c-0.5-8.2-1.2-16.4-1.7-24.7
		c-0.2-3.8-1.6-7.5,0.2-11.5c0.6-1.3-0.4-5.4-3.7-6.1c-2.7-0.5-3.3,2-4.9,3.4c-2.5,2.4-3.4,5.9-6.9,7.7c-2,1-4.4,3.4-5.8,5.6
		c-3.2,5.2-7,10.2-10.6,14.8c-5.3,6.7-11.1,13.3-17.6,19.1c-1.9,1.7-3.5,2-4.5-1.3c-1.4-4.7-3-9.4-4.1-14.2
		c-1.5-6.6-4.7-12.7-7.2-19c-2.4-5.8-1.5-12.9-6.6-17.6c-0.9-0.8,0.5-3.5-2-2.8c-1.8,0.5-4.1,1.4-4.5,3.3c-0.7,3.6-2.4,6.7-3.9,10
		c-3.9,8.9-5.2,18.9-10.6,27.4c-1.5,2.3-0.8,6.4-4.6,6.7c-4.1,0.3-3.1-4-4.4-6.2c-6.9-11.4-15.3-21.6-23.9-31.7
		c-4.7-5.5-11-8.7-16.2-13.4c-3.8-3.5-8.2-5.8-12.8-8.1c-4.7-2.4-9.5-4.5-14.4-6.4c-3.5-1.4-6.8-3-10.7-3.8
		c-3.8-0.8-7.5-1.1-11.3-1.7c-5.9-0.9-11.9-0.9-17.4,0c-7.7,1.1-15.4,0.5-23.3,3.6c-5.5,2.2-11.3,4.3-16.2,7.3
		c-9.7,5.8-15.8,15.5-21.7,24.8c-1.7,2.7-4.2,4.9-5.3,8.1c-3.2,9.8-3.2,20.2-6,30c-0.2,0.6-0.2,1.4,0,2c3.2,9.6,6.9,18.9,11.9,27.7
		c6,10.4,15.6,17,25.2,23.4c3.7,2.5,8.9,4.8,12.9,4.1c7.1-1.1,14.6-0.7,21.4-3.8c5.4-2.4,10.3-5.5,14.7-9.4c3.1-2.7,1.8-6.2,1.1-9.7
		c-0.7-3.3-3.4-2.4-5.3-3c-3.7-1.1-7.5-0.6-11.5-1.8c-11.5-3.5-15.6-12.2-18.3-22.3c-1.7-6.4,0.5-12.1,3.2-18.2
		c3.4-7.7,8.2-13.8,15.7-16.8c16.8-6.9,25.8-3.7,35.3,9.5c7.6,10.6,10,23.5,11.6,36.4c0.7,5.9,0.5,11.8,0.2,17.8
		c-0.3,5.9,0.5,11.9-0.5,17.7c-1.5,8.8-3.5,17.5-5.3,26.3c-1.3,6.3-2.2,12.9-4.4,18.9c-1.7,4.6-3.9,9.1-5.9,13.6
		c-2.9,6.4-5.3,13-7.6,19.6c-2.2,6.4-5.7,12.4-7,19.2c-0.5,2.7-1.5,5.1-2.7,7.7c-1.9,4-4.7,8-4.9,12.8c-0.1,1.7-0.4,3.4-1,5.1
		c-4.7,11.8-9.1,23.7-12.3,35.9c-1,3.9-1.6,7.9-2.4,11.8c-0.2,1,0.1,2.3-1.4,2.3c-0.9,0-1.5-0.6-2-1.4c-3.1-4.9-6.1-9.9-9.5-14.7
		c-2.7-3.8-4.5-8.3-7.6-11.8c-6.7-7.5-11.5-16.2-16.6-24.6c-4.4-7.2-6.4-16.1-14.6-20.3c-4.3-2.2-8.1-5.9-14.1-4
		c-7.2,2.2-15,2.7-22.1,5.6c-0.4,0.1-1.1-0.1-1.4-0.4c-3.2-2.9-2.7-9.1,1.1-11.2c4.7-2.6,8.2-6.6,12.8-9.3c3.5-2.1,3.9-9.6,1.6-14.3
		c-2.3-4.6-5-9-8.6-12.7c-1.5-1.5-1.1-3.9-0.1-4.1c4-0.5,4.4-4.5,6.7-6.5c5.5-5,9.5-12.2,10.6-18.9c1.5-9.1,3.6-18.4,0.8-28.3
		c-1.7-6.2-3.7-11.9-7.7-16.4c-7.8-8.6-14.1-17.1-10.8-29.7c1.5-5.8,2-11.8,6.2-16.8c3.7-4.4,3.3-15-0.5-19.3
		c-3.2-3.6-6.7-6.5-11.2-8.6c-5.5-2.5-10.4-6.7-12-12.4c-2-7.1-5.8-13.7-6.6-21.2c-2.1-5.1-4.2-5.8-9.5-2.7
		c-1.1,1.9-0.4,3.8,0.3,5.6c2.9,6.8,5,13.8,8,20.6c1.7,3.9,1.4,4.8-2.7,4.8c-2.9,0-5.6,0.5-8.1,1.8c-3.2,1.7-5.1,0.6-4.8-2.6
		c0.5-5-0.6-9.8-1.4-14.6c-1.1-6.2-1.4-13-7.1-17.5c-5-0.4-5.2-0.1-5.2,6.1c2.8,9.4,4.5,18.9,5,28.8c0.2,4.7-0.1,8.1-3.8,11.2
		c-6.1,5.1-11.2,11.1-14.9,18.1c-3.5,5.9-5.6,12-4.3,19.1c0.6,3.6,1.2,7.3,2,10.9c0.8,3.3-0.2,5.6-4.1,5.5c-2.3-0.1-4,1-5.8,2.2
		c-3,1.9-5.8,4-9,5.4c-9,4-16.6,9.8-22.6,17.7c-1.3,1.7-3.2,3.3-0.8,5.3c2,1.7,4.5,1.7,6.2-0.3c2.7-3.2,6.2-5.2,9.4-7.6
		c8.9-6.8,18.3-12.3,29.6-14.3c4-0.7,5.5,1.4,7,4c1.8,3.1-0.5,4.5-2.6,5.8c-1.8,1.1-3.2,2.7-4.7,4.2c-7.8,8-13.3,17.6-19.2,26.9
		c-1.1,1.8-0.8,3.4,0.5,4.8c1.7,1.8,3.6,2.1,5.7,0.8c2.6-1.7,3.9-4.4,5.4-7c4.6-7.6,8.3-15.9,15.4-21.7c6-4.9,9-5,15.4-0.6
		c3.1,2.2,4.2,4.4,3.7,8.3c-0.9,7.1-0.3,14.5-3.5,21.2c-4.5,9.4-12.8,15.3-20.9,21.1c-6.7,4.8-14.5,8-22.6,9.5
		c-12.9,2.3-25.8,4.6-38.9,5.7c-11.3,0.9-21.3-6.7-21-17.9c0.2-7.3-0.3-14.7,3.6-21.6c1.7-3,2.3-6.7,2.1-10.2c0-1.3-0.1-2.7,0.8-3.5
		c4-3.5,5.7-8.5,8-12.9c3.5-6.6,8-12.6,9.5-20.3c1.9-9.7-2.7-16.2-9.1-22.2c-5.8-5.5-12.3-5.2-19.1-2.2c-12.4,5.5-24.1,1.9-35.7-2.8
		c5-1,10-0.6,14.9-2.6c10.7-4.5,21.3-9.5,33.3-10.6c6-0.6,12.2-1.2,18.2-2.2c2.4-0.4,5-0.1,7.3,0.9c3.7,1.6,4,3.7,1.4,6.7
		c-1.9,2.1-3.8,4.2-6.1,5.8c-1.2,0.8-2.1,1.9-1.7,3.5c0.5,1.8,2,2.4,3.6,2.6c3.2,0.6,5.3-1.4,7.4-3.3c7.1-6,14.5-10.9,24.3-11.4
		c3.1-0.2,6.3-0.4,9.4-0.6c2.6-0.2,4.2-1.6,4.4-4.3c0.2-2.6-1.1-3.9-3.5-4.4c-3.3-0.7-6.5-1.2-9.9-0.3c-8.1,2.1-15.1,0.7-20.8-6.2
		c-4.4-5.5-10.2-9.6-16.4-13c-9-5-19.1-7.7-27.6-13.9c-5-3.7-7.2-7.7-6-13.9c0.8-4.7,1.8-5.3,6.3-3.3c11.1,5.1,21.7,11.3,32.6,17
		c9.1,4.8,17.3,10.9,27,14.9c4.1,1.7,8.9,3.3,12.1,7c2.8,1,5.2,2.6,7.6,4.4c2.7,2,6.4,4.4,10.1,2c3.8-2.5,3.6-6.4,2.6-10.4
		c-0.9-3.3-3.5-5.7-4.7-8.8c-4.3-11.5-8.4-23-12.5-34.5c-1.5-6.3-6.8-7.3-11.8-8.6c-1-0.3-2.1,0.1-1.9,1.6c-0.7,2.1-1.1,4,1.1,5.8
		c1.7,1.4,0.9,3.4-0.1,4.8c-1.5,1.9-2.6,0-3.9-0.8c-3.9-2.2-6.1-6.2-9.5-8.9c-7.2-5.8-14.8-11.1-22.3-16.5
		c-8.7-6.2-17.5-10.6-27.6-2.6c-6.8,5.4-12.1,11.9-16,19.9c-2.3,4.7-1.1,9.5-2.7,14.2c-3,9,1.9,15.9,6.8,22.7
		c1.6,2.3,3.1,4.3-1.4,4.9c-2.7,0.4-5.2,1.7-8.1,1.7c-8,0-15.4,3.7-23.5,4c-5.3,0.2-13.4,13.8-13.1,20.4c0.5,9.9,6.2,17.4,12.2,24.5
		c7.8,9.2,19.6,10.2,30.1,12.8c6.8,1.7,14.9,0.3,22.1-2.6c2.1-0.9,4.7-0.8,6.6,0.6c1.7,1.3,0,3.3-0.4,4.9c-2,8.3-7.7,14.8-12.1,21.6
		c-5.1,8-5.8,16.8-8.7,24.9c-3.5,10.1-4,21.4-1.5,32.4c1.9,8.3,3.5,16.9,8.3,24c7.5,11.1,15.8,21.6,25.7,30.8c1,0.9,2.2,0.8,3.4,1.2
		c6.2,2.1,12.1-1.3,18.2-1.1c2.6,0.1,4.2,0,3.1,3.3c-0.7,1.9-1.6,4.4-0.9,6c4.2,9.1,6.9,19.2,16.5,24.8c2.6,1.5,4.5,4.3,6.7,6.5
		c1.1,1.1,1.9,2,3.5,0.7c2.6-2.1,6.9-1.4,8.3-5.7c0.5-1.4,3-1.8,3.4,1.2c0.9,6.3,5.8,10.6,8.3,16c3.5,7.5,11.2,14,6.8,24
		c-1.2,2.7-1.1,5.8-1.9,8.7c-0.9,3.8,0.1,7.2,2.6,9.6c9.4,9.1,17,19.7,25,30c4.9,6.3,8.8,13.3,13.9,19.4c7.4,8.7,13.9,18,22,26.4
		c10.4,10.8,18.8,23.6,28.1,35.4c6.7,8.6,13.5,17.1,20.7,25.3c1.8,2.1,5.3,3.5,5.2,6.1c-0.2,6.4,0.5,12.8-0.2,19.3
		c-0.6,5.2-4,10.1-1.7,15.6c-1,7.8,0.4,15.6,1.5,23.2c1.6,11.2,5.2,22.1,10,32.4c0.5,1.7,3.2,2.3,2.2,4.7c-0.3,3.6,1.5,6.4,3.5,9.1
		c3.1,4.4,6.9,13.1,7.4,15c7,1,14.1,2,21.1,2.7c-6.6-5.7-14.2-18.2-19.4-25.4c-1.1-1.5-1.6-3.1-2-4.8c-0.9-3.2-2.2-6.3-3.2-9.4
		c-2.3-7.1-5.2-14.1-6.5-21.5c0.1-0.5,0.1-1,0.1-1.5c0-3.4-2.2-6.5-1.1-10.1c0.4-4.1-3.6-7.7-1.2-12c-1.9-4.5,0.6-8.9,0.6-13.3
		c-0.1-6.9-1-14.3,5.2-19.7c0.5-0.5,0.5-1.3,0.4-2c-4.1-5.7-6.4-12.2-5.2-19.1c0.9-5.2-0.7-8.9-3.9-12.5c-1.1-1.2-2.2-2.4-4-2.1
		c-2,0.3-2.2,2-2.6,3.5c-0.3,1.4-0.6,2.8-0.9,4.1c-0.3,1.3,0,3.2-1.8,3.4c-1.6,0.2-2.2-1.5-3.1-2.5c-3.3-4.1-6.4-8.4-9.4-12.7
		c-6-8.6-14-15.7-19.5-24.8c-1.9-3.5-5.5-5.5-7.7-8.7c-1.1-1.6-3-2.5-4.2-4c-5.3-5.5-10.4-11.2-14.6-17.6c-0.4-0.6-1.1-0.9-1.6-1.4
		c-2.6-2.6-5-5.4-6.9-8.5c-4.2-6.8-8.8-13.4-13.7-19.7c-6.5-7.8-11.2-17-18.5-24.6c4.7,3.6,8.6,2.1,12.2-1c2.7-2.3,5.9-3.7,8.8-5.7
		c10.8-7.4,18.7-17.6,25.6-28.3c6.1-9.5,14-18.4,14.1-30.9c0.1-3.6-1-6.2-3.3-8.4c-2.1-2.1-4.2,0.3-6.3,0.9c-1.3,0.4-2.5,1.3-3.7,2
		c-1.8,0.9-3.4,0.7-4.8-0.7c-1.4-1.5-2.2-3.2-1.5-5.3c0.7-1.9,2.5-1.5,4-1.7c4.2-0.6,8.2-1.8,12.2-2.9c2.5-0.7,3.9-0.1,5.3,2
		c3,4.5,5.7,9.2,8.8,13.7c8.8,12.9,17.3,25.9,25.7,39.1c1.2,1.6,2.3,3.3,3.5,5c1.1,1.3,1.9,2.9,3.2,4.1c7.9,7.2,9.4,16.1,6.9,26.1
		c0.9,5.2,0.3,10.6,1.3,15.5c1.7,7.7,2.3,15.7,5.2,23.1c0.8,2.1-0.1,3.5-1.1,5.3c-2.4,4.4-6,8.4-6,13.8c-1.2,6.3,0.3,12.3,2.5,18.2
		c1.1,8,4.8,15.2,10.2,20.7c5.7,5.8,10.9,11.7,14.1,19.2c1.4,2.6,3,5,4.5,7.5c0.3,0.4,0.6,0.8,1,1.1c6.4,9.5,13.7,18,22.4,25.5
		c5.9,5,13.3,6.8,19.7,10.7c4.5,2.7,9.5,3.8,14.6,3.7c3.5-0.1,7,0.1,10.5,0.1c4.7-0.6,9.1,0.7,13.7,1.2c2,0.9,4.1,1,6.2,0.8
		c3.4-0.9,6.5-3.2,10.3-2.6c6.1-1.9,8.2-4.9,6.9-9.7c-1-3.7-4.1-4.7-10-4.1c-6,0.6-12.2,0.2-18.2,1.3c-5.5,0.1-10.6-2.3-16-2.9
		c-1,0.1-1.9,1.7-2.9,0.1c-3.5-1.1-7.1-1.6-10.7-2.4c-6-0.2-10.7-4.2-15.7-6.7c-10.7-5.3-18.5-14.3-25.2-24.2
		c-0.8-1.2-1.3-2.5-1.9-3.7c-1.1-2.5-0.7-3.9,2.3-3.1c3.3,0.9,6.6,0.5,9.9,0.8c2.1-0.2,4.2-0.7,6.2-1.5c1.6-0.8,3-1.8,4.5-2.7
		c2.7-1.6,4.9-1.4,6.9,1.1c7.2,9.1,18,12.5,28.1,15.3c15,4.3,30.6,7.2,46.5,7.5c0.8,0.1,1.5,0.1,2.3-0.1c4.7-0.6,9.5-1.1,14.2-2.1
		c0.5,0,1,0,1.5-0.1c7.4-1.6,14.8-2.8,22.4-2c1.9-0.1,2.9-2.3,4.6-2.2c5.7,0.4,10.8-2,16.2-2.9c9.7-0.9,17.3-7.7,26.7-9.4
		c1-0.7,2-1.6,3.1-2.2c9-4.3,16.3-11.5,25.6-15.2c11.3-7.9,20.3-18.1,29.9-27.8c1.3-1.4-1.2-4.7,2.4-4.9c2.7-0.4,5.5-0.2,8.3-0.4
		c6.3-1.5,12.5-3.8,19.6-6.3c-5.7,19.9-19.1,32.4-34.7,43.2c-6.3,5.6-13.3,10.2-19.1,16.3c-2.2,2.3-3.5,4.6-0.4,6.4
		c3.6,2.1,8.1,3.3,12,1.1c4.9-2.7,9.7-5.5,14.4-8.6c10.8-7.2,19.7-16.2,27.9-26.1c4.7-5.7,9.1-11.5,10.2-19.1
		c-0.2-4.4,0-8.8,1.1-13.1c-1.6-5,1.5-7.9,4.7-10.7c10.4-7.7,13.8-18.3,12.9-30.7c-0.9-11.6-7.4-20.6-14.4-29.3
		c-4.2-4.6-9.7-7.6-14.9-10.7c-5.2-3.1-7.9-6.6-8.2-12.8c-0.1-3.5,0.7-5.6,3.5-7.4c3.3-2,6.7-3.8,9.5-6.6
		c18.9-19,41.3-32.9,64.9-45.1c7.6-3.9,8.5-7.8,3-14.3c-1-1.2-2.1-2.4-3.5-3.2c-1.4-0.8-3.1-0.3-4.4-0.9c-1.1-0.5,0.4-0.6,0.6-1
		c5.8-4.5,13.1-3.3,19-2.6c8.6,1,16.8,5.5,23,12.4c3.6,4,6.2,8.9,10,12.7c5.1,4.5,8.2,10.2,10.7,16.4c4,5.6,2.3,11.6,1.3,17.6
		c-0.6,3.2-1.8,5.3-5.1,6.6c-3.1,1.2-6.3,3-7.5,6.2c-1.2,3.4-3.3,6.1-5.4,8.9c-1.6,5.1-5.2,9-7.6,13.6c-4.7,8.9-9.5,17.8-15,26.3
		c-5.6,11.8-12.3,23.1-17.1,35.3c-5,5.6-4.5,13.7-8.9,19.6c-1.8,2.4-2.7,5.2-3.2,8.1c-0.1,0.5-0.3,1-0.3,1.6c0,6.2,1.4,7.6,7.6,7.5
		c3.8-1.2,4.7-4.3,5.5-7.7c1.6-6.7,4.3-8.2,8.7-5.2c1.1-3.8,2.2-7.7,3.2-11.6c-3.8-3.4-3.1-5.4,0.2-12.9c2.2-5,3.3-10.8,6.7-14.8
		c3.3-3.9,6.3-8.9,7.5-12.7c1.5-4.8,4.7-8.1,7.1-11.4c3.8-5.5,6.4-11.6,10.1-17.1c4.8-7.1,8.7-14.3,18-16.7c6.3-1.6,9.2-7.1,11-12.8
		c1-3,1.5-6.1,1.9-9.3c0.4-2.5,1.1-3.1,3.3-1.5c2.9,2.1,5.7,3.2,9.4,1c3.2-1.9,7.1-2.9,10.7-3.5c6.7-1.2,11.9-4.7,16.3-9.5
		c1.5-1.6,4.8-1.2,4.7-4.3c-0.1-4.1,2.4-3.2,5-2.7c7.7,1.4,15.2,4.1,23.3,0.1c5.2-2.6,9.4-5.4,11.7-10.7c1-2.4,8.6-5.7,9.4-3.9
		c1.8,3.6,5.6,3.5,8,5.7c1.5,1.4,3.5,2.8,3.9,4.6c2.1,8.7,8.1,13.9,15.8,17c5.1,2,10.9,4.2,16.3,2.1c9.3-3.5,19-6.6,24.6-16.2
		c1.8-3.1,2.8-6,2.4-9.3c-1-8.8-2.3-17.6-8.5-24.7c-1.2-1.3-1.8-3.7-0.9-4.9c1.3-1.6,3.8-0.7,5.3,0.2c6.4,3.8,13.8,5.4,20.6,6.5
		c13.7,2.1,26.5-1.3,36.2-12.5C1027.7,934,1027.3,928.9,1020.7,922.6z"/>
	<path class="st2" d="M303.3,708.6c-6.4,7.3-15.3,11-23.8,14.6c-11.5,4.8-23.7,8.3-36.4,8.7c-1.5,0.1-2.2,0.9-2.5,2.2
		c-2.2-1.1-4.4-2.3-6.9-2.6c-18-5.1-36.1-10-54.6-13.4c-11.8-2.3-21.1-9.4-29.8-17c-16.4-14.4-26.5-32.8-32.3-53.7
		c-0.5-1.7-1.1-3.3-0.2-5.1c4.5-2.1,6.1-1.3,6.9,3.8c1,6.1,3.2,11.7,5.4,17.5c4.5,12.2,14.5,19.8,23.7,27.6c4.5,3.8,11.9,5,18.3,6.3
		c0.7-0.1,0.2-1.2,0.2-0.5c0,0.3-0.1,0.4-0.3,0.4c-4.5,0-8.1-2.8-12.2-4.3c-0.8-0.3-0.7-1.1-0.2-1.8c3.3-1.8,6.8,1,10-0.5
		c12.7-3.9,16.5-10.3,14.1-23.3c-2.2-11.7-9.1-20.2-17.7-27.8c-5.4-4.2-11.4-6.6-18.4-6.9c-6.2-0.3-10.9,1.9-14.3,7
		c-0.7,1-1.4,2.1-2.6,2.5c-1.4-0.3-1.7-1.3-1.9-2.5c1.6-6.6,7-11.1,14.4-11.8c4.6-0.4,9.1,0.2,13.7,0.5c7.3,1.1,12.6,5.4,17.1,11
		c6.6,8.9,15.7,14.9,24.7,21c1.9,1.2,3.9,2.4,5.9,3.5c14.8,8.1,30.6,9.2,46.9,6.8c5-0.7,9.9-2.6,15-1.9c2.4,2.9-0.5,3.9-2,5.1
		c-1.7,1.4-3.7,2.5-4.3,4.9c-1.4,2.9-3.7,5.1-5.5,7.6c-6.1,8.3-7.4,19.3,4.2,26c2.7,2.3,5.9,1.8,9,2.1c3.1,0.2,6.3-0.7,9.3,0.9
		c0.9,3.3-1.9,2.6-3.4,2.8c-8.5,1-19.2-0.3-29.1-3.7c5.6,2.3,11.1,2.9,15.6,6.2c1,0.8,2.4,0.4,3.6,0.2c12.3-2.7,24.4-5.9,35.6-11.9
		C300,708.2,301.5,707.1,303.3,708.6z"/>
	<path class="st3" d="M266.1,669.5c-8.5,0.5-16.8,2.7-25.3,3.6c-5.6,0.6-10.8-0.2-16-0.9c-9.1-1.2-17.5-4.3-25.6-9.3
		c-9.4-5.9-17.8-12.7-25.8-20.2c-0.7-0.7-2.5-1.1-1.3-2.8c1.7-0.6,2.7,0.7,4,1.3c6.2,4.4,11.8,9.5,17.9,13.9
		c6.5,4.2,12.8,8.6,20.5,10.6c1.9,0.5,3.5,0.8,4.2-1.6c2.3-8.4,5.2-16.6,7.3-25c-2.3-5.4-7.3-6.3-12.2-7.1c-1.4-0.2-2.5,0.2-2.9-1.9
		c-1.1-4.7-2-4.9-5.5-1.8c-0.7,0.6-1.2,1.3-2.1,1.6c-2.7,0.1-4.7-1.1-6-3.4c-2.7-4.7-0.4-15.5,4.1-19.1c1.8-0.9,2.4,0.7,3.3,1.6
		c3.4,4.6,6.8,9.3,11.4,13c14.9,12,33.3,10.3,47.8,0.4c5.7-3,9.9-7.2,10.9-13.9c2.7-6.6,2.9-13.5,2.6-20.5c-0.1-2.1-0.4-3.6-3-2.5
		c-4.2-2.7-6.6-7-10.1-10.3c-12.7-11.9-33.7-14.1-48-4.7c-9.4,6.7-12.5,15.8-10.6,27c2,6.2,4.5,12,9.8,16.3c1.1,0.9,2,1.9,2.3,3.4
		c-0.2,1.3-1.2,1.6-2.3,1.7c-5.5-2.7-9.3-7-11.9-12.5c-2-4.5-3.4-9.1-3.4-12.8c0.4,2.3,0.5,6,1.9,9.5c0.6,1.6,1.1,3.4-0.8,4.6
		c-3.8-1.3-3.7-4.7-4.1-7.7c-0.3-2.2-0.1-4.5-0.1-6.8c-0.3-7.8,3.2-14.5,6.6-21.2c3.2-5.1,6.8-9.8,10.9-14.1c2.5-2.6,4-5.8,3.2-9.6
		c-0.6-2.7,1-5.1,1.5-7.7c0.9-4.7-0.1-5.8-4.9-5.3c-8.8,0.8-17.4,2.7-25.8,5c-2,0.6-4.8,2.2-5.9-1.5c9.2-4.5,19.3-5.4,29.2-7.3
		c8.2-1.6,16.4-1.1,24.6-1.1c1.2,0,2.5,0,3.4,0.9c-2.2,2.5-4.9,0.4-7.1,0.7c13.8,1,27.4,4.4,40.5,9.3c3.5,0.9,6.6,2.8,10.1,3.9
		c3.4,0.6,6,2.7,8.3,5.2c-1.2,2.5-3.7,1.4-5.6,1.8c-2.4,0.5-4.2,1.3-4.3,4.3c-0.3,7.8-1.4,15.5,0.7,23.3c1.3,4.9,1.1,10,1.1,15.1
		c0.2,3.1-0.9,6.1-1.3,9.1c-0.4,1.8-0.9,3.7-1.4,5.5c-3.4,4.6-4.3,10.7-8.5,14.8c-3.5,2.2-6.1,4.9-7.4,9.1
		c-2.7,8.6-5.6,10.3-14.6,9.2c-1.1-0.9-1.3-2.3-2.3-3.8c0,2,0.6,3.7-0.8,4.9c-0.7,0.3-1.4,0.4-2-0.1c-0.9-0.9-1.6-1.9-2-3.2
		c0,1.7,1.7,2.4,1.9,3.9c-3,2.6-6,1.3-8.9,0c-2.2-1.7,0.3-2.5,0.8-3.8c-1.8,0.4-1.5,2.4-2.8,3.1c-1.6-0.2-1.7-1.5-1.9-2.7
		c-0.4,0-0.2-3-1-0.2c-0.1,0.4,0.6,1.1,0.5,1.8c-4.4,6.4-5.3,14-7.3,21.3c-1.1,4,1.7,5,4.7,5.2c7.9,0.6,15.8,0.8,23.5-1.5
		c7.7-1.9,15.5-3.1,23.4-4.1c1.7-0.2,4.1-0.7,4.5,1.4c0.5,2.1-1.9,2.9-3.5,3.1C273.4,668.3,270.2,671.6,266.1,669.5z"/>
	<path class="st4" d="M585.9,874.2c2.5,3.2,5.1,6.3,2.4,10.8c-0.9,1.5-0.2,3.4,0.8,5c1,1.7,1.3,3.5,0.6,5.5c-1.4,4.2,3,6.8,3.3,10.6
		c0.1,1,1.3,2.3,1,2.9c-3.7,6.3,3.3,10.5,3,16.2c-0.1,1.6,1.7,1.6,2.4,0c0.7-1.6,0.9-3.4,2.4-4.5c1.2,2.4,2.3,4.8,3.5,7.3
		c-2.5-1-5.1-1.5-5.8,1.9c-0.5,2.4-1.3,5.6,2.8,6.2c1,0.1,1.3,1,1.5,1.9c2.7,11.7,9.3,21.9,12.4,33.5c0.4,1.6,2.3,2.7,3,4.2
		c1.4,2.9,6.3,4.5,3.1,9.3c-0.7,1.1,0.6,4.3,1.8,5.8c3.4,4.1,5.2,9,7.4,13.5c2.7,5.3,4.9,11.1,6.5,17.1c1.2,4.3,1.2,8.3,1,12.5
		c-0.1,3.1-0.6,4.4-3.9,3.3c-1-0.3-2.4-0.8-3.1-0.3c-5.4,3.7-13,2.2-17.6,7.7c-2.8,3.2-6.9,1.7-10,1.4c-3.2-0.3-2.8,1-2.7,2.6
		c0.2,2.9,0.5,5.9,1,8.7c0.9,5,3,5.8,6.9,2.7c1.2-1,2.5-1.2,3.9-1c-1.6,4.2-5.3,6.6-8.6,5.9c-3.1-0.7-7.4-6.5-7-9.6
		c1.7-11.1,0.2-22-2.2-32.8c-0.6-2.7-0.6-5.6-0.4-8.4c0.3-6.5-2.2-8.6-8.7-6.9c-11.7,3.2-23.3,6.7-34.8,10.4c-1.3,0.4-2.7,1-4.1,1.1
		c-4.1,0.2-6.7-2.6-5.8-6.7c0.4-1.9,1.2-3.7,2.6-5.1c7-7.3,11.1-16.6,15.9-25.3c2.7-4.9,5.3-9.9,8.7-15.3
		c-6.7-0.5-11.7,2.4-17.1,3.5c-13.3,2.9-26.5,5.9-39.1,11.4c-12.7,5.5-26.2,8.9-39.1,13.8c-1.8,0.7-3.6,1.8-5.2-0.1
		c-1.5-1.8-1.6-3.7-0.8-5.9c1.8-4.9,3.7-9.8,6.4-14.4c0.8-1.3,1.8-3,0.9-4.5c-1.1-1.8-2.9-0.5-4.3-0.2c-8.3,1.7-16.1,4.9-24.2,7
		c-15.7,3.9-30.3,11-45.7,15.5c-6.6,1.9-12.4,5.7-18.9,7.9c-1.6,0.5-3.1,1.8-5,0.6c0-1.4,3.3-3.2,0.1-4c-5.7-1.4-3.3-5.3-1.9-7.4
		c3.1-4.5,3.1-9.8,4.8-14.5c0.4-1,0.2-2.1,1.3-2.6c2.6,5.2-0.3,9.9-1.3,14.7c-0.3,1.4-1.4,2.4-1.7,4.5c3.3-0.9,6.4-1.8,9.3-3
		c12.1-4.7,24.5-8.8,36.8-13c15.8-5.3,31.5-11.1,48-14.1c3.1-0.6,5.8-2.6,8.8-3.5c3.6-0.4,5.2,1.6,5.5,4.9c0,0.5-0.1,1.1-0.3,1.6
		c-2.2,4.4-2.7,9.5-5.5,13.6c-0.8,1.2-1.4,2.7-0.3,3.9c1.2,1.4,2.6,0.2,3.9-0.1c20.2-4.7,39.1-13.6,59.3-18.2
		c10.6-1.2,20.3-5.9,30.9-7.1c7.1-0.8,8.2-0.1,6.5,6.8c-0.2,0.8-0.5,1.7-0.9,2.5c-8.5,9.3-14.4,20.3-19.9,31.5
		c-1.3,2.6-3.5,4.4-4.8,6.9c-0.4,0.8-1.1,1.6-0.7,2.5c0.6,1.2,1.8,0.7,2.8,0.7c0.7,0,1.4-0.1,2.1-0.3c12-4.4,24.8-6.2,36.8-10.6
		c1.9-0.7,3.7-1.3,5.6-0.1c1.5,1.5,2.1,3.3,1.7,5.3c-1.7,10.1,1.4,19.8,2.8,29.7c0.3,2.1,0,4.2,0.1,6.3c0.2,3.9,1.6,4.6,5,2.8
		c6.7-3.6,13.7-6.3,21.3-6.6c2.9-0.1,3.2-1.8,2.7-4c-1-4.3-2-8.5-3.8-12.6c-4.5-10.6-10.6-20.6-13.6-31.9c-0.5-1.9-2.1-3.2-3-4.9
		c-3.8-8.4-7.5-16.9-10.3-25.7c-1.4-2.7-2.5-5.5-3.3-8.4c-3.6-6-4.6-13.1-8.2-19.1c-0.1-0.5-0.1-1-0.1-1.4
		c-1.7-4.3-3.7-8.5-4.2-13.2c-1.3-7-3-14-4.2-21.1c-0.8-4.8,0.1-9.8-1.3-14.5C583.6,876,584,874.3,585.9,874.2z"/>
	<path class="st5" d="M182.5,538.4c5,2.3,9.3-1.1,13.8-2.1c7-1.6,14-2.3,21.1-3c2.1-0.2,4.3,1.1,3.7,2.6c-2.7,7.4,0.5,16.3-5.4,22.5
		c-4.1,4.3-7.7,8.9-11,13.8c-0.8-7-4.9-10.5-11.6-11.8c-2-0.4-3.7-2-5.3-3.4c-5.1-4.4-5-7.6,0.1-12.4c-2.7-0.9-2.3,3.6-4.8,2.8
		c-1.4-0.8-0.7-2.1-0.9-3.2c0.3-2.2-2.9-2.3-2.7-4.4C180.4,539.3,181.5,538.8,182.5,538.4z"/>
	<path class="st6" d="M281.9,594.5c0.3-7.6-1.1-14.9-2.2-22.4c-0.5-3.5-1.9-7.4,0.6-10.9c0.4-0.6,0.4-1.7,0.3-2.5
		c-0.8-7.8,0.4-8.9,8.3-8.3c0.8,0.1,1.7-0.3,2.5-0.4c0,0-0.1,0-0.1,0c2.9,2.6,6.6,4,9.7,6.4c7.3,4.9,15.2,9.2,18.9,17.9
		c-0.8,1-1.8,1-2.9,0.7c-3.9-2-5.2-1.6-6.7,1.7c-1,2.1-3,2.8-5.2,3.1c-4,0.5-7.9,1.2-11.9,1.4c-7.5,0.3-8.4,1.5-9.1,9
		C284.1,591.8,284.8,594.2,281.9,594.5z"/>
	<path class="st7" d="M234.3,730.9c2.9-0.7,4.8,0.7,6.2,3.1c0,1,0,2,0.1,3.1c-2.3-4.3-5.8-3.4-9.4-2.2c-5.2-0.9-10.5-1-15.7-1.1
		c-7.2-2.9-3.2,3.4-4.5,5.4c-1.1,0.1-1.5-0.7-1.8-1.5c-0.8-2.3-1-5.1-3.6-6c-4.4-1.5-9-2.7-13.6-3.7c-1.7-0.4-1.9,1.8-2.9,2.6
		c-2.5-5.6-7.1-7.3-12.8-7.2c-13.7-13.3-31.6-21.5-42.7-38c-12.2-18.2-20.5-37.6-21.2-59.4c-0.5-14.1,2.6-28,11.2-40
		c2.3,4.4-2.1,7.4-2.4,11.3c-5.3,12.8-5.3,26.2-3.9,39.6c0.2,1.7,0.9,3.4-0.1,5.1c0.6,8.7,4.2,16.6,7.8,24.3
		c5.4,11.2,12.1,21.7,21.2,30.5c9.4,9,19.7,16.3,32.3,20.1c17.3,5.1,35.1,8.3,52.3,13.7C231.9,730.9,233.1,730.7,234.3,730.9z"/>
	<path class="st8" d="M303.3,708.6c-7.5,3.7-15.1,6.9-23.1,9.2c-6.2,1.8-12.4,3.4-18.6,5.1c-0.8,0.2-2.1,0.4-2.5-0.1
		c-4.4-4.8-10.6-5.1-16.1-7c-1.2-0.4-2.1-1.2-2.9-3.1c2.7,0.6,4.9,0.8,6.9,1.6c9.3,3.9,18.9,2.3,28.5,2.4c0.4,0,0.8-0.6,1.2-0.9
		c0.2-0.2,0.4-0.3,0.5-0.5c4.1-1.4,8.7-1.8,12.4-4.6c8.8-4.5,16.3-10.6,22.6-18.1c3.1-3.4,4.8-7.3,4.4-12c-0.1-1.6-0.1-3.2,0.8-4.6
		c3.3-1.5,1.7,2.9,4.8,2.7c8.7-8,14.9-17.7,12.9-31.2c-0.3-2.2-0.7-4.5,0.5-6.6c5.2,0.4,4.7,5.3,6.5,8.3c-1.6,8.6-5.3,16.6-8,24.9
		c-2.3,7.1-6.2,13.3-11.5,18.4C316.5,698.5,311.6,705.6,303.3,708.6z"/>
	<path class="st9" d="M127.8,578.8c11-15.4,24.8-27.4,42.1-35.3c3.9,2.7,1.9,5.9,0.4,8.8c-2.9,5.7-7.7,9.9-12.1,14.5
		c-6.8,7.1-14.4,13.3-23.9,16.6C129.4,585.1,127.4,583.5,127.8,578.8z"/>
	<path class="st10" d="M327.4,581.7c9,10.4,11.9,23.2,14.7,36.1c1.2,5.5,1.9,11.1,0.9,16.7c-4.4,2.2-6.2-1.5-7.9-4
		c-4.5-6.7-8-14-10.4-21.8c-1.9-6.9-4-13.8-3-21C322.2,584.7,322.4,580.8,327.4,581.7z"/>
	<path class="st11" d="M127.8,578.8c-0.3,4.3,2.5,4.8,5.5,3.7c9.3-3.3,17-9.3,23.8-16.3c3.9-4,7.5-8.3,10.9-12.7
		c2.2-2.9,4.5-6.1,2-10c1.4-1.7,3.2-2.3,5.3-1.9c3.9,2.7,1.9,6,0.4,8.8c-2.6,5-6.6,9-10.6,12.9c-3.2,3-6.3,6-9.8,8.6
		c-2.8,3.4-6.6,5.7-10,8.5c-2.1,2.1-4.9,3.2-7.3,4.9c-0.4,0.3-0.9,0.5-1.3,0.7c-2.6,0.6-4.9,2.8-7.9,1.6c-1.5-1.3-2.8-2.8-3.4-4.8
		C126.2,581.4,126.4,579.7,127.8,578.8z"/>
	<path class="st12" d="M320.8,574.6c1.8,0.2,2.3,1.9,3.3,3c-5.7,6-3.7,13-2.3,19.7c0.8,4,2,8.1,3.7,11.9c0.7,5.5,4.9,9.7,5.6,15.2
		c-1.4,2.4-3.1,0.4-4.7,0.3c-0.5-0.2-0.9-0.6-1.2-0.9c-2-2.5-3.1-5.3-3.2-8.6c-1.4-7.9-5.1-15.3-6.2-23.3c-0.5-3.5-0.7-7-0.3-10.5
		C316,578.1,318.1,576.1,320.8,574.6z"/>
	<path class="st13" d="M273.4,541.7c-9.1-2.3-18.1-4.7-27.2-6.9c-4.9-1.2-9.8-2-14.7-3.5c2.8-0.2,5.5-0.3,8.3-0.5
		c12.6,0.8,24.4,4.4,35.8,9.7C275.6,542.6,274.6,542.3,273.4,541.7z"/>
	<path class="st14" d="M320.8,574.6c-4.9,5.1-4.6,11.1-3.4,17.5c1.2,6.2,3.2,12.2,5,18.3c0.5,1.7,2.2,3.4,0.6,5.4
		c-1.7,0.1-2.7-1.1-3.1-2.4c-3.7-11-8.8-21.8-7.8-33.9c0.2-2.7,0.2-6,4.5-5.2c1.1,0,2.2,0,3.3,0.1
		C320.2,574.4,320.5,574.5,320.8,574.6z"/>
	<path class="st15" d="M154.2,571.3c6-5.5,12.4-10.6,17.4-17.1c2.8-3.7,6.4-7.2,3.6-12.6c1.1-1.2,2.5-2,4.2-1.9
		c1.5,1.3,4.6,1,4.1,4.2c-1,0.5-2.7-0.7-3.1,1.1c-2.2,8.6-8.9,13.9-14.6,19.9c-1,1-2,2-1.9,3.5c-1.8,3-4.4,5-7.6,6.4
		C153.1,575.3,153.5,573.4,154.2,571.3z"/>
	<path class="st16" d="M325,609.4c-3.8-7.1-5.9-14.8-6-22.9c0-3.6,0-7.9,5.1-9c1.6,1,2.4,2.6,3.3,4.2c-3.9,0.6-4,3.7-4.4,6.7
		c-0.8,7.3,1.5,14,3.1,20.9C325.8,609.8,325.4,609.8,325,609.4z"/>
	<path class="st17" d="M325,609.4c0.4,0,0.8,0,1.1-0.1c2.5,7,5.6,13.8,9.7,20.1c1.7,2.5,3.3,5.6,7.2,5.2c0.3,1.7,0.6,3.5,0,5.3
		c-2.5,2-4.1,0-5.8-1.4c-2.3-1.9-3.3-4.9-5.2-7.1c-1-1.2-2.1-2.3-2.4-3.9c-0.1-0.8,0-1.6,0.6-2.2c0.1-4.1-2.6-7.3-4-10.9
		C325.7,612.6,325.2,611.1,325,609.4z"/>
	<path class="st18" d="M128.8,587.1c3.1,0.5,5.3-2.4,8.3-2.3c-0.9,4.4-4.2,6.9-7.7,8.9c-2.8,1.5-5.7,3.4-9.2,2.8
		c-0.3-4,3.9-6.5,3.3-10.5c0.3-0.2,0.5-0.2,0.8,0C126.1,585,127.5,586,128.8,587.1z"/>
	<path class="st19" d="M332.6,630.3c2.3,1.3,2.4,4.1,4.1,5.9c1.8,1.8,3.1,4.5,6.3,3.7c-0.4,3.2-0.7,6.3-1.1,9.5
		c-3.1-2-3-6.4-6.2-8.3C331.4,638.4,331.5,634.5,332.6,630.3z"/>
	<path class="st3" d="M301.1,556.4c-3.5-1.7-7.8-2.2-9.7-6.4C295.3,551.1,298.6,553.3,301.1,556.4z"/>
	<path class="st20" d="M273.4,541.7c0.8-0.2,1.7-0.1,2.1-1.1c3,0.6,5.3,2.4,7.7,4.2C279.7,544.8,276.5,543.4,273.4,541.7z"/>
	<path class="st9" d="M128.8,587.1c-1.7,0.4-3.1-0.4-4.5-1.1c0.3-1.1-0.3-2.6,1.1-3.3C127.1,583.8,128.7,584.9,128.8,587.1z"/>
	<path class="st21" d="M352.5,1141.7C352.5,1141.6,352.5,1141.6,352.5,1141.7C352.5,1141.6,352.5,1141.6,352.5,1141.7L352.5,1141.7z
		"/>
	<path class="st21" d="M352.5,1141.6c0.8,0.5,1.6,0.5,2.4,0.1c1.2-1.4,1.1-3.1,0.9-4.8c-0.1-0.7-0.4-1.4-0.4-2.1
		c0.1-3.6,4-10,6.5-10.1c4.5-0.2,4.5,4.1,6.1,6.8c0.3,0.5,0.4,1,0.7,1.4c5.1,10.7,17.7,11.9,24.9,2.3c1.3-1.7,2.1-3.7,3.3-5.4
		c3-4.4,7.5-4.8,11.8-1.9c3.1,2,1.2,5.2,2.8,7.3c3.1,0.9,6.7,1,7.7,5.1c-0.9,1.6-1.4,3.2-0.4,5c1,1.8,0.4,3.6-0.6,5
		c-2.7,4.1-2.7,9.6-7.2,12.8c-1,0.7-2.7,4.5,0.3,5.2c6.2,1.6,10.7,7.4,17.7,6.7c1.1-0.1,1.9,0.7,2.8,1.3c6.9,4.6,15,5.8,22.9,6.2
		c5.8,0.3,11.7-1.3,17.4,0.3c7.2,2.1,14.1-0.2,20.9-1.3c6-1,12-2.7,18.1-3.1c17.7-1.2,33.7-8.3,49.4-15.6
		c9.3-4.3,17.7-10.5,26.5-15.9c7.1-4.3,12.3-10.9,19.2-15.5c1.7-1.2,3-3.8,4.6-5.8c2.5-3.1,0.1-6.2-2.2-8.6c-2-2-1.7-4.2-0.5-6.3
		c1.2-2.1,3.2-0.8,4.8-0.5c2.1,0.3,4.2,0.5,6.2,1.2c10.7,3.4,20.6,0.4,30.2-3.9c5.6-2.5,10.5-6,14.9-10.7
		c8.1-8.7,10.3-21.2,5.4-31.8c-1.5-3.2-4.2-4.3-6-6.9c-3.4-4.9-8.7-8.8-14.5-10.2c-13.7-3.3-25.4,1.7-35.3,11.2
		c-1.1,1.1-2,2.5-3.3,3.3c-1.8,1.1-4.4,3.2-5.9,1.4c-2-2.4-6.3-4.8-5.6-7.5c3.2-11.4,0.7-22.1-1.5-33.1c-0.6-3-1.2-6.2-0.4-9.6
		c1.4-6.5-2.2-9.7-8.6-7.9c-12.7,3.6-25.4,7.4-38.1,11.2c-2.4,0.7-4.8,1.8-6.6-0.8c-1.8-2.7-0.7-5,1.3-7c5.4-5.4,8.5-12.5,12.6-18.8
		c4.6-7,6.7-15.6,12.6-22c0.8-0.9,1.4-1.7,0.7-2.7c-0.6-1-1.9-1.4-2.8-1.1c-3.5,1.2-7.5,0.9-10.5,2.4c-6.4,3.2-13.4,2.7-20,4.8
		c-2.2,0.7-3.4,3-6.1,2.8c-8.4-0.9-15,4.7-22.5,7c-7.3,2.2-14.6,4.9-21.9,7.5c-4.7,1.7-9.5,3.1-14.2,4.8c-1.2,0.4-1.7,3.6-3.4,1.2
		c-0.9-1.3-2.1-3.3-1-5.3c2.8-4.9,4.5-10.5,7.6-15.3c0.9-1.4,1-3.3,1.3-5c0.2-1.1-0.4-2.3-1.8-2c-3.7,0.8-7.5,1.2-10.9,2.7
		c-7.4,3.2-15.3,4.6-22.8,7.2c-5.8,2-11.6,4.3-17.7,5.7c-4.8,1.1-8.9,4.1-13.5,5.1c-12,2.6-22.5,9-33.9,13.1c-7.4,6-10.2,15-12,23.3
		c-3.3,15.8-8.6,31.3-7.2,48.1c0.7,7.8,1.4,15.8,1.7,23.7c0.3,6.6,3.8,4.9,7.1,5c0.9,0,1.8-1.3,2.7-1.4c3.7-0.4,7-1.3,11,0.2
		c4.3,1.6,7.6,4.7,11.9,6c4.2,1.2,6.8,6.4,5.2,10.3c-0.4,1.1-1.1,2.7-2.7,2.9c-1.4,0.2-1.4-1.1-1.8-2c-1.2-2.4-10.8-6.5-13.3-5.9
		c-4.1,1-8.4,1.2-12.2,3.4c-6.1,3.5-12.5,6.8-14.9,14.2c-1.2,1.5-2.4,3.2-1.5,5.2C352.3,1136.5,351.8,1139.2,352.5,1141.6z"/>
	<path class="st22" d="M197.5,797.6c-6,8.6-5.3,17.8-2.3,27.2c0.9,2.8,2.3,5.5-1,7.9c-0.7,0.5-1.2,1.6-2,1.2
		c-4.5-1.9-7.4,1.4-10.3,3.6c-4.4,3.3-9.7,4.7-14.3,7.6c-6.2,3.9-10.6,9.7-15.8,14.7c-1,0.9-0.9,2.1,0.4,2.5
		c1.7,0.5,3.6,1.7,5.3-0.3c8.5-10.4,20-16.5,32-21.4c3-1.2,6.7-1.7,10.1-2c4.1-0.4,4.3,4,6,6.5c1.8,2.7,0.1,3.9-2,5.4
		c-7.2,5.2-11.8,12.7-17.3,19.4c-3.2,3.9-3.1,9.8-8.2,12.3c-1.3,0.6-1.5,2.2,0.1,2.8c1.5,0.6,2.6,3.9,4.7,1.3
		c1.9-2.4,3.8-4.7,5.3-7.6c4.7-9.4,9.9-18.7,19.4-24.3c3.4-2,6.6-2,11,0.1c8,3.8,6.9,10.4,6.5,16.3c-0.2,2.3-0.7,5.3-1,7.9
		c-1.4,11.9-9.4,19-17.8,26.1c-6,5.2-12.8,8.7-20,11.6c-6.6,2.6-13.5,4.5-20.7,4.2c-2.9-0.2-4.9,1.6-7.3,2.3c-6.9,2.2-14,0.2-21,1.9
		c-5.5,1.3-12.2-0.7-16.7-4.3c-3.7-3-5.8-9-5.4-13.6c0.6-7.5-1.4-15.5,3.7-22.6c1.9-2.6,2.6-6.9,1.9-10.1c-0.6-2.9,0.3-4.2,1.8-5.8
		c4.9-5.2,7.1-11.9,10.4-17.9c2.2-4,5.2-7.3,6-12.2c1.5-10.6-3.3-21.2-12.8-26c-3.6-1.8-7.9-1.1-10.6,0.4
		c-13.1,7.3-25.7,2.8-38.4-0.4c-0.3-0.1-0.7-0.2-0.9-0.5c-1.2-1.2-2.3-2.5-3.9-4.1c3.6-0.9,7,0,10.1-0.1c6.6-0.2,11.3-4.7,16.8-5.8
		c7.2-1.5,13.4-6.5,21.2-5.5c0.9,0.1,1.9,0.4,2.6,0.1c6.5-3.1,13.8-2,20.6-3.7c3.9-1,11.5,2.7,13.1,6c0.4,0.9,0.5,1.9-0.6,2.2
		c-4.8,1.1-5.6,7.1-10.3,8.4c-0.8,0.2-1.4,1.1-1.1,2.1c0.3,1,1.2,1.1,2.1,1.3c3.5,1.1,5.9-0.7,7.8-3.1c4.8-6.2,12-8.7,18.7-11
		c4-1.4,9.3-2.1,14.2-1.2c2.7,0.5,4.4-0.2,4.7-3.3c0.3-3.1-2.2-2.3-3.7-3.2c-5.3-2.9-10.1,0.9-15.1,1.1c-6.6,0.3-10.6-2.6-14.2-6.6
		c-7-8-15.4-13.6-25.2-17.5c-4.9-2-10-4.1-14.5-6.4c-3.9-2-9.4-4.2-11-9.6c-1.4-4.6-0.9-9.2,0.2-13.8c0.6-2.4,2.1-3.2,3.7-2
		c2.3,1.8,5.5,1.7,7.4,3.4c6.1,5.2,13.7,8.5,20.6,11.7c9.8,4.5,17.7,11.9,27.6,15.5c5.2,1.9,9.6,5.6,15.2,6.7c2.1,0.4,3.5,1.6,4,3.6
		c0.6,1.7,2.3,1.2,3.5,1.8c1.1,0.5,2.7,0.8,2.8,2c0.3,4.4,1.5,8,6.3,9.6c1,0.3,0.3,2-0.4,2.7C197.7,794.1,198.2,796,197.5,797.6z"/>
	<path class="st23" d="M866,894.2c-8.7-10.4-20.3-15.6-32.7-20.1c-6.6-2.4-13.2-4.6-20.1-5.7c-6.5-1.1-12.2,0-16.8,5.5
		c-4.2,5-9.4,7.4-16.3,4.9c-3.3-1.2-3.7-3-1.4-4.8c6.4-5,12.8-10,21.2-11.9c6.3-1.4,12.9-3.3,15.3-11.4c1.8-6,7-10.5,11.5-14.8
		c6-5.8,11.5-12.5,20.1-14.9c7-1.9,14.2-4.1,21.3-0.6c1.6,0.8,2.7-0.4,4-0.2c2.1,0.3,3.8,1.5,4,3.6c0.1,1.9-1.8,2.5-3.3,2.7
		c-10.9,1.7-18.9,7.8-25.7,16.3c-3.9,4.8-6.6,10.5-11.3,14.8c-3.4,3.2-1.2,8.1,3.5,9.1c5.6,1.2,11.2,1.6,16.6,4.3
		c3.8,2,8-1.3,12-2.4c9-2.5,16.9-8.7,25.7-10.4c7.6-1.4,16.2-0.3,23.6,4.8c3.7,2.6,5.9,6.3,9.2,8.9c3.5,2.7,1.5,3.4-0.5,5.2
		c-3.8,3.4-8.5,4.5-13.1,6c-1.6,0.5-3.1,1.2-3.3,3c-0.1,1.8,1.3,2.6,2.7,3.5c4,2.6,7.9,2.7,12.3,1.1c4.5-1.7,9.1-2.9,13.7-3.9
		c3.8-0.8,6.7-1.4,8.3-6.1c1.5-4.4,5.5-7.3,11.4-5.7c5.7,1.6,12.3,1,16.2,6.3c4.2,5.6,8.8,11.4,11.2,17.8c3.4,9.2,10.7,14.4,17.5,20
		c2.2,1.9,3.5,4.7,6.7,5.8c1.8,0.6,1.7,3.3,0.1,5c-1.1,1.2-2.3,2.2-3.1,3.5c-2.1,3.2-3.9,2.6-6.2,0.2
		c-11.6-12.5-25.2-22.5-38.6-32.7c-8-6.1-15.8-1.7-23.1,2c-8,4-14.7,10-21.1,16.2c-5.2,5-11.6,6.4-18.5,5.7c-1-0.1-2.1-0.4-3.1-0.6
		c-2.8-0.7-4,1.4-5.6,2.9c-2.3,2.2,0.4,2.9,1,4.1c2.4,4.7,5.3,9.1,7.3,13.9c3,7.5,10.3,6.7,15.9,9.3c6.1,2.9,13.6,1.5,18.8,7
		c3.5,3.7,8,6.3,11.8,9.8c2.4,2.2,4.1,5.9,3.9,8.6c-0.2,2.4,3.8,3.3,1.5,4.8c-3,2.1-6.4,4.4-10.1,4.6c-2.9,0.1-5.7-0.4-8.7,0.2
		c-6.5,1.2-8.9-4.4-11.8-8.2c-5.7-7.5-12.6-13.2-20.7-17.8c-5.4-3.1-13.2-2.5-18.1,1.2c-5.4,4.1-9.1,10.4-16.7,11.7
		c-6,1-7.7,0-6-5.7c2.5-8-0.2-15.1-2.9-22.2c-0.4-1.2-1.5-2.6,0-3.1c4.1-1.1,5.1-5.2,7.7-7.7c8.1-8,9.5-18.4,9.2-29.2
		c0-1.6-1.3-3.2-2-4.7C869.2,900.5,869.1,896.7,866,894.2z"/>
	<path class="st24" d="M341.9,1246.5c1.7-2.5,2.5-5.7,6.7-4c10.9,4.4,18,13.5,26.4,20.9c1.7,1.5,3.4,2.1,5.5,2.7
		c5.2,1.5,10.9,1.2,15.2,5.3c1.5,1.4,4.8,2,5.1-0.7c0.4-3.9,3.1-3.7,5.4-4.4c1.5-0.5,2.9-0.6,3.9-2.2c2-3.5,5-3.2,7.4-0.8
		c2,2,3.1,1.9,4.3-0.4c1.9-3.7,5.3-4.9,9.1-5.2c4.8-0.4,8.9-2.4,12.1-5.7c1.9-2,3.9-3,6.5-2.7c3.2,0.4,5.3-1,7.3-3.3
		c1.7-2,3.7-3.7,5.6-5.6c1.2-1.3,2.5-2.1,4-0.5c4.1,4.5,6.7,1.4,9.1-1.8c3-4.1,9-6.6,14.1-5.4c7.7,1.8,7.8,1.8,9.9-6.2
		c0.3-1.2,0.4-3,2.1-1.8c6.2,4.6,13,3.3,19.5,1.8c6.3-1.5,12.1-4.7,17.7-8.2c-1.7,0.2-3.2,0.6-4.8,0.2c-1.7-0.9-3.4,0.5-5.1,0.3
		c-1.8-0.3-3.5-1-3.7-3c-0.2-2.3,1.8-2.1,3.2-2.6c3.3-1.1,6.4,1.2,9.7,0.5c1.2,0.1,1.7,1.1,2.5,1.7c2,1.5,3,0.7,2.9-2.3
		c-0.1-5.7,1.1-6.8,6.7-5.6c2.2,0.5,5,1.9,6.4-0.2c2.1-3.1,5.5-2.6,8.1-4.1c5.6-3.3,12-5,17.3-9c6.3-4.7,13.4-6.5,21.4-4.1
		c3.4,1,7.3,2.3,11.2,0.9c-4.2-3.5-13.6,1.6-13.2-8.4c-2-0.4-1.5,2.6-2.9,1.8c-1.5-0.9-0.6-2.4-0.2-3.7c2.1-6.8,1.2-13.4-0.9-20
		c-3.7,1.5-7.9,2.4-11.1,4.7c-4.9,3.6-9.5,7.5-15,10.3c-2.1,5.7,2.8,3.2,4.9,4.2c-0.7,1.8-0.7,4.5-3.7,4.1c-2.6-0.3-2.4-2.5-2.4-4.4
		c0-0.9-0.2-1.7-1.1-2.2c-9.7,1.4-17.4,8.1-27,9.8c-2.2,1.1-4.7,1.3-6.9,2.1c-4.5,1.6-9.6,0.7-13.6,3.9c-1.7-0.4-3.2-1.3-5.1-1
		c-6.1,1-12.4,1-18.4,2.5l-0.4,0c-4.8,1.3-9.6,1.9-14.5,2.1c-0.5,0-1.1-0.1-1.6-0.1c-2.6,2-1,2.9,1,3.3c2.6,0.6,5.2,0.6,7.9,0.5
		c1.9-0.1,4-0.3,5.3,1.7c-4.3-2-8.3,0.3-12.4,0.6c-2.9,0.2-3,1.9-2.1,4.1c0.5,1.1,1.6,1.8,1.8,3.1c-4.4-4-6.7-3.6-8.4,1.8
		c-0.7,2-1.5,2.6-3.4,1.9c-1-0.4-2-0.7-3-0.8c-5.7-0.3-6.3-0.9-6.4-6.8c0-1.2,0.4-2.8-1-3.2c-2.6-0.7-5.3-0.3-7.6,1.1
		c-1.8,1.1-2,3.1-1.9,5.2c0.1,1.4,2.5,2.9,0.2,4.1c-1.8,0.9-4,1.4-6.1,0.5c-1.7-0.8-2.4-2.5-3.3-4c-3.3-5.7-7.6-10.8-14-12
		c-10.5-1.9-17.4-8.5-24.5-15.3c-1.3-1.3-2.5-3.1-4.9-2.4c-0.9,1.5-0.1,2.7,0.7,3.8c6.2,7.7,13.1,14.6,22.5,18.5
		c2.7,1.1,4.9,2.7,6.8,4.8c4.6,4.8,4.4,5.7-1.2,8.8c-0.3,0.2-0.3,0.6-0.3,1c0.7,1.2,2.5,0,3.1,1.5c1,1.3,1.5-0.1,2.2-0.4
		c0.7-0.5,1.6-1.1,2.4-0.6c4.2,2.4,9,2.5,13.5,4c0.6,0.3,1.5,1.1,1.8,0.9c6.1-3.6,12.8-0.3,19.1-2c4.9-1.3,6.3,0.6,6.3,5.5
		c0,4.7-4,3.9-6.3,5.5c-3.3,0.3-6,2.8-9.4,2.5c-2-0.9-4.4,0.7-6.3-1c-4.7,0.8-9.2-0.2-13.8-1.1c-2.5,0.4-4.8-1.6-7-1.1
		c-6,1.3-11.1,0.1-16.7-2.5c-2.8-1.3-4.9-3.8-8.2-4.3c-8.9-1.5-14.2-8.4-20.3-14c-5.9-5.4-10.2-12.2-15.3-18.3c-1,1.4-0.1,2.6,0.2,4
		c2.2,8.4-4.5,15.7-13.2,15.3c-4.6-0.2-8.5-2.2-12.8-3.2c-0.6,2-1.6,3.8-3.8,4.4c-1.4,0.3-2.1,1-2,2.5c0.5,7.5,0.2,14.9-1.4,22.3
		c-0.5,2.5,0.1,4.4,1,6.4C341.3,1243.8,340.6,1245.3,341.9,1246.5z"/>
	<path class="st23" d="M236.3,872.8c4.5-7.3-1.3-13.8-2.9-20.5c-0.8-3.5-6-5.9-8.9-9.2c-4.3-5-11.4-6.4-14.9-12.4
		c-3.3-5.8-4-11.4-3.5-18.3c0.7-9,7-13.5,11.8-19.1c5-5.8,12-10.1,19.2-12.5c7.3-2.4,15.5-2.5,23.1,0c4.8,1.6,5.1,3.8,2.3,8.1
		c-4.5,6.9-9.7,14.2-9.8,22.5c0,9,0.8,18.5,5.7,26.8c3.6,6.2,7.2,12.5,12.4,17.5c2.6,2.5,1,5.7,1.9,8.2c2,5.2,0.7,9.9,0,14.9
		c-0.8,5.7-4.6,9.8-7.5,13.9c-7.4,10.5-17.9,18.4-28.5,25.3c-9.5,6.2-19.6,11.8-30.2,16.5c-15.4,6.9-30.8,13.1-47.2,17.1
		c-3,0.7-5.7,2.8-8.5,4.3c-1.1,0.6-2.1,1.4-3.3,0.3c-7.7-7-17.5-11.7-22.4-21.6c-0.5-1-2.2-1.6-1.3-3.1c0.8-1.3,2.4-1.8,3.7-1.2
		c7.5,3.2,15.2,0.5,22.7,0.3c3.9-0.1,8.3-1.5,12.5-2c7-0.8,13.6-3.3,20.4-4.8c5-1.1,9.8-3.5,14.7-5.4c7.3-2.9,12.6-8.7,19.2-12.6
		c2-1.2,2.6-3.5,4.6-5.1c6.6-5.3,12.6-11.6,13.5-20.7C235.4,877.5,238.7,875.9,236.3,872.8z"/>
	<path class="st23" d="M757.6,940.2c-5.7-4.6-12.9-5-17-11c-6.1-9-3.6-20.8,5.4-27c4.7-3.2,9.7-5.9,14.7-8.3c4.2-2,8.5-4.6,13.8-3
		c3.2,1,6.6,1.6,9.9,1.6c6.7,0,11.7,4.3,16.7,7.5c9.2,5.9,18.9,11.4,25.2,21.2c6.8,10.7,14.7,20.7,18.1,33.3c0.9,3.6,0.8,7-0.7,9.6
		c-4.1,6.8-7.3,14.2-13.5,19.7c-2.1,1.9-4.6,2.6-6.8,3.6c-6,2.7-11.9,5.7-19.2,4.8c-3.1-0.4-4-1.9-4.8-3.7c-1.4-3.3-2.5-6.5-4.9-9.4
		c-1.6-2-0.3-4.2,2-4.9c5.1-1.4,10.2,1.4,12.7,6.2c1,1.9,1.9,5.3,5.3,3.6c4.3-2.1,1.7-6.6,0.8-8.4c-2.4-4.8-4.1-9.6-5.8-14.6
		c-2.4-6.8-8.1-11.5-12.9-16.6c-5.4-5.7-11.4-10.7-17.1-16c-7.7-7.1-17.7-10.6-28.1-12.5c-1.1-0.2-2.2-0.1-2.6,1.1
		c-0.4,1,0.4,1.5,1,2.1c1.8,1.9,3.1,4.1,6.3,4.5c5.1,0.7,2.2,5.3,3,8C759.7,934,758.3,936.8,757.6,940.2z"/>
	<path class="st25" d="M248,1085.6c-3.4-4.7-6.9-9.2-10.2-14c-2.1-3.1-4.1-6.3-7.5-8c-2.7-1.3-1.7-3-1.4-4.8c0.2-1.1,0.8-2,2-2
		c1,0,1.3,0.7,1.7,1.6c1.5,3.4,3.4,3.3,6.4,1.4c9.2-5.9,18.2-12,25.8-20.1c2.4-2.6,3.7-5.7,6-8.3c7.1-8,11.1-18.3,17.8-26.6
		c-1.9-5.6,4.1-11.5-0.7-17.3c-1.4-1.6-1.4-1.5-2.9-0.7c-2.5,1.5-5.5,1.9-7.8,4c-2.5,2.2-4-0.6-5.2-1.8c-2.3-2.1-2.6-5.2-1.7-8.2
		c0.8-2.7,2.7-1.3,4.3-1.1c4.5,0.4,8.4-2,12.7-2.9c2.9-0.6,4-1.2,6.2,1.9c8.1,11.6,15.6,23.7,23.8,35.4c4.1,5.8,7.9,12.1,11.2,18.5
		c0.3,0.6,0.8,1.4,0.1,1.9c-6.2,4.4-9.6,11-13.1,17.3c-4.6,8.4,0.4,17.6,9.7,18.7c3.3,0.4,6.7,0.7,9.9,1.4c3.7,0.7,5.3,4.8,2.6,7.1
		c-2.9,2.6-6.4,4.7-10,6.4c-0.4-0.3-0.8-0.7-1.1-1.1c-1.2-9.3-3.4-10.7-12.8-9.4c-4.5,0.6-8.7,3.5-13.8,1c-2.2-1.1-4.1,2.7-6.2,4.2
		c-2.7,1.9-4.6,2.3-4.3-2c1-2.3,2.9-3.9,4.6-5.6c10.5-10.7,13.6-23.9,12.4-38.4c-0.2-3-1.5-5.7-3.6-8c-6.8-4.1-13.1-2.7-15.1,4.6
		c-3.2,11.8-6.3,23.7-6.6,36.1c-0.1,2.6,0.2,4.9,3.5,5.4c1.5,0.2,1.9,1.4,1.3,2.8c-3.7,4.7-6.8,9.7-8.5,15.6
		c-2.8,5.5-2.8,5.5-8.4,2.5c-2.2-1.2-4.4-2.1-6.8-2.6C257.3,1089.5,251.7,1090.4,248,1085.6z"/>
	<path class="st26" d="M232.4,1042.9c-0.8-3.8-3.2-7.4-6.9-9.7c-1.5-0.9-2.9-1.8-3.9-3.2c-6.5-9.1-12.2-18.7-17.3-28.7
		c-1-1.9-0.9-3.7,1.5-4.7c6-2.5,11.1-6.5,15.7-10.9c8.5-8,18.9-13.7,26.8-22.3c1.6-1.7,2.8-1,2.9,0.5c0.4,3.4,2.4,5.9,4.4,8.2
		c5.9,7,9.1,15.6,13.2,23.6c2.1,4,4.3,8,6.1,12.2c1.8,4.2,1.6,7.4-2,10c-3.3,2.5-4.3,6.4-6.6,9.5c-6.9,9.6-14.7,17.9-25.1,23.8
		c-1.8,1-4,1.3-4.7-0.2C235.3,1048.4,230.4,1048,232.4,1042.9z"/>
	<path class="st27" d="M769.9,1027.5c-2.4,0.2-4.8-1.4-7.1,0c-4.8,2.9-10.8,3.5-14.6,8c-1.9,2.3-2-1-3.1-0.9
		c-3.7,6.8-9.7,10-17,11.3c-1.3,0.2-2.7,0.8-2.9,2.6c2,0,4,0,6.2,0c-0.9,1.1-2.6,2.5-2.4,3.2c2,5.5-2.7,8.1-4.5,12
		c-4.2,8.7-11.2,12.4-20.3,13.6c-8.3,1.1-12,5.2-11.3,12.7c0.5,6.2,4.2,10.8,8.8,14.4c3.4,2.6,5.1,5.7,3.1,9.5c-1.9,3.7-6,3-9,2
		c-4.9-1.6-8.3,0.3-11.1,3.8c-2.3,2.9-4.4,5.8-6.2,9.1c-4.7,8.7-7.3,18.1-9.1,27.6c-2,10.3-6,20.1-8.8,30.2
		c-1.4,5.1,1.4,7.9,4.6,10.1c3.1,2.1,6.8,1.3,9.8-1c2.2-1.7,3.9-3.9,5-6.6c1.7-4.3,4.2-7.3,9.5-5.2c4.1,1.6,8.2,1.4,12.3-0.3
		c1.6-0.7,3.3-1.4,4.7,0.5c2.7,1.1,4.8-0.2,6.7-1.8c1.8-4.1-1.1-3.3-3.3-3.3c-2.1,0-4.9,0.6-5.3-1.9c-0.3-1.9,2.6-1.8,4-2.5
		c1.2-0.6,2.9-1.1,2.2-2.9c-0.7-1.6-2.3-1.4-3.7-1.1c-3,0.8-6.1,1.6-9.1,2.5c-9.3,3.1-10.2,3-14.6-3.5c-0.6-0.4-1.2-0.9-1.9-0.6
		c-1.7,0.7-3.2,3.4-5.3,0.7c-1.4-1.7-2.1-3.7-1.9-5.9c0.7-8.1,2.1-16,4.9-23.7c1.7-4.6,3.6-9.2,6.9-12.9c3.9-4.5,7.8-4.1,10.8,0.9
		c0.8,1.4,1.8,2.6,3,3.6c0.6,0.5,1.3,0.8,2,1c2.5,0.4,5.2,0.7,7.6,1.4c5,1.4,6.9-0.6,7.4-5.3c0.1,1.1,0.4,1.8,1.2,2.3
		c2.1-7.2,7.2-13.1,8.4-20.8c0.3-2.2,1.7-5.2,4.1-6.9c0.7-0.7,0.5-1.6,0.5-2.5c0.1-5.6,0.2-5.5-5.4-4.6c-4.9,0.9-9.8,0.8-14.7,0.1
		c-3.9-0.6-8.1-2-8.6-6.4c-0.5-4,3.7-5.1,6.6-6.5c6.4-3.2,13.4-4.9,19.7-8.6c3.9-2.3,8.2-5.3,13-5c2.8,0.2,4.1-0.8,5.7-2.4
		c2.1-2.6,4.2-5.5,5.8-8.3c5.2-9.3,9.3-19.2,15.9-27.7C770.2,1030.3,770.1,1028.9,769.9,1027.5z"/>
	<path class="st28" d="M722.4,948.4c3.8-2.4,7.6-5.2,12.5-2.6c0.1,0.1,0.4,0.1,0.5,0.1c10.4-4.4,17.3,3.7,25.3,7.4
		c6.3,3,8.8,9.6,13,14.7c0.7,0.9,0.9,2.3,2.4,2.5c0.6,1.2,2.5,2.7,1.1,3.6c-2.7,1.8-3.9-2.1-6.6-2.6c-0.6,5.7-4.2,9.7-8.1,13.5
		c-2,2-0.8,3.9-0.6,5.9c0.2,2.4,1.3,5.1-2.6,5.6c-4-3.6-5.1-8.9-7.3-13.4c-2.9-5.9-8.1-8.4-13-11.6c-1.5-1-3-0.2-4.3,0.9
		c-7.3,2.1-10.2,8.8-14.3,14.2c-1.6,2.1-3.3,4.5,0.5,6.4c1.1,0.5,2.6,1,2.4,2.4c-0.3,1.7-2.1,1.5-3.4,1.8c-0.9,0.2-1.7,0.4-2.5,0.8
		c-3.8,1.3-7.3,3.3-11,4.8c-3.9,1.6-7.1,4.4-6.8,9.4c-3.3,7.3-9.3,10-16.9,10.2c-1.2,0-2.5,0.2-3.7,0.2c-9.3,0.6-15.1,5.3-17.1,14.1
		c-0.8,3.6,2.7,4,4.5,5.7c1.5,1,3.2,1.7,4.6,2.9c1,1.2,2,2.3,2.9,3.6c0.6,0.8,1.4,1.8,0.7,2.8c-0.9,1.2-2.1,0.7-3.2,0.2
		c-5.5-4.1-10.9-8.5-16.7-12.1c-3.4-2.1-5.1-3.6-6.1-8.4c-1.7-7.9,1.4-11.2,7.2-14.4c7.2-3.9,11.9-10.9,18.3-15.9
		c12-9.2,24-18.2,37.2-25.5c5.6-3.1,11-6.6,17.1-9c5.7-2.1,6-6.7,1.1-11.7c-1.1-1.1-2.2-2.2-3.2-3.4c-0.7-1.1-1.9-0.5-2.8-0.7
		C722,950.5,721.2,949.9,722.4,948.4z"/>
	<path class="st29" d="M331.3,1188.2c0.9-4.3,1.7-8,2.4-11.7c0.4-2,1.7-3.4,3-1.5c2.6,3.6,6.1,6.6,4.9,12.5
		c-1.4,6.9-0.8,14.3,5.4,19.5c0.7,0.7,1.4,1.6,2.2,2.2c5.5,4.2,22.2,1.6,26.1-4c0.3-0.4,0.4-1.1,0.2-1.5c-2.3-3.9,0.6-9-2.8-12.7
		l0,0c-2.8-1.6-3.3-4.6-4.3-7.3c-1.9-5.6-4.6-11-9.1-14.8c-7.6-6.6-12.6-14.6-15.2-24.3c0.3-3.2-3.4-5-2.8-8.4
		c0.2-1.2,0.7-3.2-1.2-3.5c-2.1-0.3-2.5,1.8-2.5,3.3c0,4.5-2.9,6.4-6.6,7.9c-5.3,2.1-10.9,2.6-16.6,2.5c-8.4-0.1-11.3-0.7-17.2-4.2
		c-1.4,0.6-1.3,1.6-0.8,2.8c1.1,1.8,2.1,3.7,3.3,5.3c6.3,8.1,12.7,16.1,19.1,24.1C322.7,1179.1,325.6,1184.5,331.3,1188.2z"/>
	<path class="st30" d="M186.1,994.8c-0.6-0.2-2.7-0.2-3.8-1.3c-3.5-3.8-7.4-7.6-9.7-12.1c-4.5-9.2,0.8-18.9,10.7-20.8
		c7.7-1.5,14.7-4.8,21.9-7.6c15.7-6.1,29.9-14.9,43.7-24.4c0.3-0.2,0.6-0.4,0.9-0.6c6.6-4.7,6.7-4.7,13.2,0.8
		c3.1,2.7,2.8,5.7,0.1,8.1c-5.9,5.1-12.1,9.9-18.2,14.7c-12.1,9.6-24.4,19-36.2,28.9c-5.4,4.5-10.7,9.5-17,13
		C190.3,994.2,189,995.2,186.1,994.8z"/>
	<linearGradient id="SVGID_1_" gradientUnits="userSpaceOnUse" x1="533.8676" y1="1263.9552" x2="532.9717" y2="1320.3937">
		<stop  offset="0" style="stop-color:#D0BC98"/>
		<stop  offset="1" style="stop-color:#B09B70"/>
	</linearGradient>
	<path class="st31" d="M712.3,1185.7c-8.6,3.3-17.2,6.9-26.3,10.8c1.6-2.7,3.4-3.2,4.9-3.8c4.1-1.6,8.1-3.4,12.1-5.2
		c1.9-0.8,4.1-1.5,3.8-4.3c-1.7-2.5-4.1-1.5-6.2-0.9c-3.5,1.1-6.9,1-10.4,0.2c-5.9-1.4-8.2-0.3-11.2,5c-1.3,2.3-2.4,4.7-4.6,6.4
		c-2.7,2.1-5.7,2.9-8.8,1c-2.9-1.8-4.4-4.5-3.7-8.1c0.4-2.1,0.8-4.1,1.6-6.1c3.3-8.4,5.3-17.1,7.4-25.9c2.2-9.4,4.6-18.8,9.7-27.2
		c4-6.4,7.9-12.8,17.3-10.3c3.1,0.8,6.5-0.1,8-3.6c1.5-3.6,0.5-6.9-2.4-9.5c-1.9-1.8-3.9-3.5-5.5-5.6c-7.4-9.8-4.3-17.9,7.6-20.1
		c0.9-0.2,1.8-0.2,2.6-0.5c6-1.8,11.6-4.4,15.1-9.9c3.6-5.5,7.5-10.8,8.4-17.8c0.4-2.8,0-3.7-2.6-3.4c-1.2,0.1-2.5,0.2-3.7,0.3
		c-3.7,0.9-8.1-0.4-10.8,3.5c1.9,2.6,2.6,5-0.1,7.7c-1.5,1.5-2.5,3.5-3.3,5.4c-1.4,3.6-4,5.5-7.7,6.6c-4.4,1.2-8.7,2.9-12.8,4.9
		c-2.3,1.1-3.2,2.6-3.5,5.3c-0.5,5.8,0.6,11.8-1.3,17.5c-0.4,1.2-0.6,2.5,0.2,3.6c1.5,2.1,0.9,3.5-1.4,4.5c-1.1,0.5-2.1,1.3-2.8,2.4
		c-3.1,4.9-6.9,9.3-11,13.4c-2.1,2.1-3,4.9-2.7,7.7c0.3,2.5,0.1,4.9,0,7.3c-0.1-0.7-0.4-1.4-1.1-2c-0.4,6.2-4.5,11-7.6,15.6
		c-5,7.4-11.8,13.7-18.7,19.6c-6.1,5.2-12.9,9.8-19.9,14c-5.4,3.3-9.9,5.2-15.8,3.2c-1-0.3-2.1-0.5-2.3-1.8c-0.2-1.3,0.5-2,1.6-2.9
		c6.6-5.5,13.1-11.2,19.6-16.8c1.1-1.1,3.7-2,2-4c-1.2-1.3-2.9,0.3-4.1,1.3c-2.7,2.3-5.2,4.7-8.3,6.4c-1.6,0.9-3.3,1.6-4.9,0.3
		c-1.5-1.3-1.4-3.2-0.9-4.9c0.8-2.8,2.7-4.8,4.7-6.8c8.3-8.6,18.3-15.3,25.7-24.8c0.4-0.6,1-1,1.5-1.4c1.8-1.6,6.1-1.7,5.1-4.9
		c-0.8-2.6-4,1.4-6-0.2c-3.2,0-6.5-0.9-9.6,0.7c-2.6,1-0.2,4.3-2.5,5.5c-10.1,8.8-18.8,19.1-29.4,27.4c-0.3,7.1,1.7,14.3-0.6,21.4
		c-0.4,1.3,0.5,2.4,1.6,3.5c3.8,4,8.7,4.7,13.2,5.2c-5.6,0.7-10.7-3.7-17.2-2.8c-9.7,1.3-16.4,8.5-25.1,11.5
		c-7.1,2.4-13,8.2-21.4,6.7c-3.3-0.6-5.5,1.3-5.7,4.7c-0.2,2.5-1.4,2.9-3.4,2.5c-1.5,1.8-4.1,2.8-4.5,5.6c-0.1,0.5,1.6,0.5,0.6,0.9
		c-3.4,1.3-6.8,2.9-10.2,4.2c-6.7,2.7-13.7,3.7-20.5,0.7c-3.8-1.7-5.4-1.1-6.3,2.9c-0.9,4-2.8,5.7-7.6,4.5c-6-1.5-11.9-0.4-15.9,5.3
		c-1.4,1.9-3.3,4.1-5.6,2.5c-4.8-3.4-7.3-0.2-10.3,2.7c-2.5,2.4-4.9,4.5-8.6,5.6c-9.2,2.8-17.4,8.3-26.5,11.6
		c-2.7,1-4.4,3.2-7.6,1.4c-1.7-0.9-3.9-0.5-5.4,1c-1.9,2-5.2,2.3-6.6,3.9c-4.5,5.4-8.7,2.4-13.7,1.4c-9.1-1.9-17-6-22.7-12.9
		c-5-6-11.4-9.3-17.8-12.7c-2.7-1.4-5.1-0.9-6.9,1.6c-0.5,0.7-1,0.5-1.6-0.8c-3.5,4.2,0.8,7.7,1,11.5c-1.4,3.8,2.4,7.1,1.1,10.9
		c-1.1,0.9-1.2,2.1-0.8,3.3c3.3,9.5,6.6,19,9.9,28.5c0,0,0,0,0,0c0.6,4.9,4.9,7.3,7.3,11c3.1,4.9,11.3,15.4,15.5,19.2
		c82.3,18.2,163.6,0.7,240-41c2.4-1.3,5-2.4,7.4-3.6c3.4-3.8,6.9-7.4,9.2-12c8.1-7.4,16.2-14.9,24.3-22.3c4.2-3.8,8.1-8.7,13.1-11
		c6.1-2.8,11-7.3,16.7-10.8c7.3-11.4,13.6-21.1,21.3-32.3C708.8,1191.2,710.6,1188.5,712.3,1185.7z M343.1,1265
		C343.1,1265,343.1,1265,343.1,1265C343.1,1265,343.1,1265,343.1,1265z"/>
	<path class="st32" d="M758.9,995.9c1.7-0.2,3-1.4,2.2-2.8c-4.1-6.9,1.5-10.3,5.1-14.3c1.6-1.8,2.7-3.5,2.5-6
		c-0.1-1.4-0.3-3.1,1.3-3.7c1.3-0.5,2,1.1,2.9,1.9c1.2,1,2.3,2.1,3.5,3.2c1.1-1.5-0.6-2.4-0.3-3.6c4.7,4.8,8.6,10.2,10.6,16.7
		c0.7,1.5,1,2.9-0.6,4.5c-3.3-2.4-4.2-6.1-5.2-8.5c-2,13-3.7,27-17.2,35.4c-4.9,3-9.3,7-14.9,8.6c-2,0.6-1.6,3.8-4.2,3.1
		c-1.9-0.3-2.9-1.7-3.9-3.2c-3.9-5.6-9.5-8.7-16-9.7c-4-0.6-7.5-4.3-11.9-1.9c-6.1-1.5-7-0.9-8,5.5c-1,6.3-2.4,7.5-8.9,7.7
		c-5,0.2-10.1-1.5-15.1,0.2c-2.5,0.9-5.5,1.1-6,4.3c-0.5,3.3,2.1,4.9,4.4,6.5c1.5,1,3.1,1.5,4.9,1.6c1.5,0,2.8,0.3,3,2.2
		c-0.2,1.4-1.1,2.3-2.2,3.1c-6.5,3.9-7.4,3.9-14.2-1.4c-1.7-0.2-3.1-0.7-4.2-2.1c-4.6-7.8-3.5-18.4,10.3-21c3.8-0.7,7.6-1,11.5-1.1
		c4.1-0.1,7.3-1,8.7-5.2c0.6-1.8,2.8-2.1,3.5-3.8c4.2-6.6,16.6-11.7,24.2-10.9c9.9,1.1,19.5,3.8,29.4,5.5c5.6,0.9,6.3,0.2,5-5.4
		C758.3,999.5,757.6,997.7,758.9,995.9z"/>
	<path class="st33" d="M338,1126c0.9,0.7,0,3.5,2.5,3.1c1.8-0.3,0.4-2.6,1.7-3.5c0.5-5.5,3.5-9.9,6.9-13.8c1.6-1.8,1.9-2.6,0.8-4.8
		c-4.2-7.8-4.6-16.8-6.3-25.3c-0.8-4.3-0.6-9.4-1.4-14.1c0.3-0.4,0.4-0.9,0.5-1.5c0.2-5.4,0.3-5.4-4.6-3.5
		c-4.4,1.6-8.7,0.8-12.6-1.2c-3.3-1.6-4.1-4.5-2.6-8c1.9-4.1,4.4-7.9,7-11.6c1-1.4,3.2-2.6,1.7-4.9c-0.8-1.7-1.6-3.3-3.1-4.4
		c0.3,3.2-2.8-0.1-3.9,2.2c-3,5.7-7.1,10.8-10.5,16.3c-5.3,8.7,0.8,20.3,10.8,20.8c3.3,0.2,6.5,1.1,9.9,1.2c3.5,0.1,4.3,3.4,2.1,5.1
		c-3.1,2.3-7,3.5-9.7,6.5c-1.5,3.4,0,7.5-2.3,10.6c-3.9,5.3-7.7,10.7-13.1,14.9c-4.4,3.4-10,5.9-12.5,11.5c0.6,2.3,2.1,2.1,4.1,1.8
		c6.4-0.8,12.9-0.2,19.1-2c1.1-0.3,1.7,1.1,2.6,1.5c1.1,0.4,2.1,0.3,3-0.2C332.8,1120,335.1,1124,338,1126z"/>
	<path class="st34" d="M718.2,1131C718.2,1131,718.2,1131,718.2,1131C718.2,1131.1,718.2,1131.1,718.2,1131
		C718.2,1131.1,718.2,1131,718.2,1131z"/>
	<path class="st34" d="M734,1123.1c-3.1,1.4-5.2,4.6-5.5,8.3c0,0.2,0,0.3,0,0.5c0,3-1.2,5.2-4.1,6.3c-0.6,0.7-0.8,1.9-2.3,1.3
		c-5.3-2.1-5.4-2.3-3.8-8.5c-0.5-1.5,0.3-3.3-0.8-4.7c-1.7,0.9-1.6,2.3-1.9,3.4c-0.7,2.7-0.7,4.7-4.9,2.9c-1.8-0.8-5.6-2.2-8.5-0.5
		c-1.9,1.5-2.7,3.6-3.3,5.8c-0.8,3.1-2.7,5.7-3.8,8.5c-2.4,6.1-6.9,11.5-6.9,18.5c0,5.7,1.1,6.7,6.4,5.1c8.5-2.6,16.8-5.9,24.4-10.8
		c3.4-2.1,6.8-4.2,10.3-6.1c3.9-9.3,7.3-18.8,10.1-28.6C737.8,1123.2,736,1122.2,734,1123.1z"/>
	<path class="st35" d="M399.1,1179.5c2.4,2.3,4.7,4.7,7.3,6.8c5.2,4.2,9.6,10.1,16.8,11c8,1,13.9,5.2,17.4,12.1
		c2.6,5.2,5.6,6.7,11.2,5.2c3.4-0.9,3.8-1.5,1.9-4.3c-2.5-3.6-1.3-6,3.2-6.4c1.3-0.1,2.6-1.3,4.4-0.2c-2,2.9-0.8,5.6,0.6,8.3
		c0.6,1.2,0.3,1.3,6.3,1.6c0.9,0,1.8,0.9,2.8,1.2c2.9,1,5.9,1.9,4.9-3.2c-0.3-1.6,0.2-2.9,1.8-3.3c1.3-0.4,2.8-0.4,3.8,1
		c1.2,1.6,2.3,3.3,4.5,3.9c-0.7-3.7-3.4-6-4.8-9.9c5.2,2.2,9.9-4,14.6,0.9c0.5,0.5,2.5-1.3,2.9-2.6c0.5-1.7-1.2-1.7-2.3-2.1
		c-4.2-1.9-8.6-0.2-12.9-0.8c-1.7-0.3-2.8-0.4-1.8-2.4c-4.9-2-10.2-0.4-15.1-1.6c-14.1-3.4-28.8-3.7-42.4-10.5
		c-6.8-3.4-13.2-6.4-17.9-12.4c-1-1.3-1.9-1.7-3.6-1.2c-2.9,1-5.8,2.2-7.8,4.6C394.6,1178.2,396.1,1179.6,399.1,1179.5z"/>
	<path class="st36" d="M193.2,771.2c-4,0.7-4.1-3.3-6.8-4c-8.5-2.3-15.1-8.7-23.7-10.9c-1.3-0.3-1.8-1.5-2.8-2.3
		c-3.6-2.9-7.7-5.1-11.8-7.3c-5.8-3.1-12.8-5-17.1-10.8c-0.4-0.5-0.4-1.6-1.3-1.3c-7.2,2.9-10.1-3.6-14.4-6.8
		c-2.4-1.8-1.1-4.3,1.1-5.8c2.6-1.8,5.3-3.4,7.7-5.6c2.9-2.8,6-2.8,9.4-0.4c6.8,4.7,14.2,8.6,20.5,13.7c4.3,3.5,9.3,6.3,12.8,10.9
		c2.5,3.3,6.4,5.1,10,7.1c4.8,2.6,8.6,5.9,10.3,11.5C188.6,763.3,191.1,766.9,193.2,771.2z"/>
	<path class="st37" d="M942.7,928.1c-6.3,3.9-11.1-3.5-17.3-3.2c-1.9,0.1-3-1.5-1.1-3.2c8.2-7.2,15.9-15.4,27.6-16.4
		c3.6-0.3,7.2,2,9.7,4.2c10.6,9.1,21.7,17.6,31.6,27.4c2.4,2.4,2.6,2.5-0.8,3.9c-8.3,3.5-15.4,0.5-22.8-2.7c-5-2.2-10.3-4-15.6-5.3
		C950,931.8,947.3,928.4,942.7,928.1z"/>
	<path class="st38" d="M299.7,1121c0.4,0.8,1,2.2,1.6,1.8c6.5-3.5,13.9,0.5,20.4-2.8c2.3-1.2,3.2,0.4,3.6,2.3
		c-0.7,1.3-2,2.2-2.8,3.5c-5.5,2.9-10.8,6.4-17.5,4.2c-3.5-2.2-6.6-1.6-9.6,1.1c-3,2.6-6.5,3.3-10.3,1.9c-2.1-2.8-4.4-5.3-7.5-7.1
		c-2.4-1.4-2.4-4.9-4-6.4c-10.4-10-16.9-22.7-25.6-33.9c7.7,4.5,17.6,1.6,25,8c2.7,2.3,1.5-3.4,3.7-3.8c1.9,3.6,2.1,8.8,8.2,8.1
		c3.2,0.1,6.2-0.8,9.1-2.1c1.2-0.5,2.5-0.8,3.4,0.2c1,1.2,0,2.3-0.9,3.1c-2,1.8-4.6,3.5-2.3,6.4c1.9,2.4,4.9,3.2,8,2.4
		c1.4-0.3,3-1.7,4.2,0.2c1,1.6-0.4,2.9-1.1,4.3c-3.2,3.9-8.1,5.4-12.2,8.7C295.4,1121.9,297.6,1120,299.7,1121z"/>
	<path class="st39" d="M667.2,1134.9c0.1,2.2,0.2,4.4,0.4,7.2c1.8-1.8,1.5-3.6,2-5.2c1.2-4.1-1.6-8.7,1.2-12.2
		c4.5-5.6,8.9-11.4,13.8-16.5c2.9-3,7.2-3.4,2.3-8c-0.3-0.2,0.4-1.6,0.8-2.4c1.1-2,1.3-4.3,0.7-6.1c-1.5-4.4,2.4-8.4,0.3-12.7
		c-0.5-1,1-1.5,2-2c1.9-0.8,3.7-2.2,5.7-2.6c9-1.9,16.2-5.8,19.2-15.2c0.1-0.3,0.4-0.5,0.7-0.8c3.1-3.2,3.9-6-1.3-7.7
		c-2-3.7-5.7-2.8-8.6-2.8c-7.4,0-14.8,0.4-22.2-1.3c-0.5-0.2-1.3-0.5-1.4-0.5c-2.5,4.2-5.3,2.5-8.3,0.6c-1.1-0.7-2.6-0.8-3.9-1.2
		c0,2,1.5,2.9,2.6,4.2c2.5,3-0.9,1.7-1.7,2.2c3.4,4.1,6.1,8.6,8.8,13.2c6.3,10.4,7.4,21.1,2.5,32.2c-2.2,5.1-4.5,10.4-10.1,12.9
		c-0.8,1.7-0.5,4.2-3.4,4.6c-1.6,0.2-1.4,1.7-1.3,2.9c0.1,1.3,1.7,2.4,0.4,3.8C665.8,1125.7,666.3,1130.3,667.2,1134.9z"/>
	<path class="st37" d="M197.5,797.6c-0.7-2.5,0.5-4.6,1.8-6.7c-4.7-1.3-8.4-2.9-6.6-8.8c0.5-1.8-0.8-2.4-2.2-2.8
		c-1.5-0.5-3.1-0.8-3.5-2.6c5.4,0,7.8,6.1,13.1,6.4c1.1,0,1.9,2.9,3.3,1.1c1.2-1.6,3.8-2.8,3.2-5.1c-0.9-3.1-0.8-6.2-2.7-9.3
		c-3.5-5.6-5.4-11.9-7.5-18.2c-2.4-7-4.9-14-7.3-21c-0.8-4.4,0.6-5.6,4.9-3.7c2.8,1.3,5.9,2.2,9,2.5c5.2,0.5,7.3,3.2,7.1,8.2
		c0,0.5,0.7,1.1,1,1.6c2.6,7.1,5.4,14.1,4.6,21.8c-0.2,1.9-0.4,3.6,0.2,5.6c2.1,6.7,0.9,10.1-4.7,14.4
		C205.3,785.4,200.4,790.7,197.5,797.6z"/>
	<path class="st40" d="M616.1,1169.7c3.3-2.2,5.7-5.7,10.3-7.8c-1.2,1.9-1.8,2.9-2.5,3.9c1.2,0.1,2-0.5,2.8-1.2
		c4.9-4.3,9.4-9.2,14.5-12.9c9.1-6.6,11.6-16.9,17.4-25.3c1-1.5,1.1-4.7,0.1-6.3c-1-1.8-3.3,0.3-4.6,1c-4.9,2.5-10.4,3.4-15.4,5.6
		c1.6,2.6,3.9-1,6.3,1.3c-6.3,0.9-9,5.9-12.6,9.8c-2.4,2.6-5.1,4.7-7.7,7c-5.9,5.4-12.1,10.5-17.1,16.8c-2.4,3-3.1,6.9-0.2,9.6
		C610.4,1173.8,613.5,1171.4,616.1,1169.7z"/>
	<path class="st41" d="M841.8,885.8c7.8,3.2,15.3,6.8,20.1,14.2c2,3,3.1,6.6,3.3,10.1c0.1,2.2,0,4.4,0.1,6.6
		c0.1,2.9-0.2,6.1-2.5,8.8c-2.4,2.7-4.5,5.6-6.3,8.9c-2.9,5.5-4.6,5.6-8.4,0.8c-3-3.8-5.3-8.2-7.9-12.4c-0.9-1.5-0.8-2.1,1.1-3.5
		c9-6.1,8.8-19.9-0.2-26.4c-3.7-2.7-8.4-4-11.2-7.9c-2.1-2.3-0.9-3,1.5-2.7C835,882.7,838.7,883.4,841.8,885.8z"/>
	<path class="st42" d="M364.1,1156.4c1.8,0.8,3.6,0.1,5.7,1c6.5,2.9,14,2.4,20.1-0.2c8.1-3.4,14.8-9.5,19-17.7
		c-0.1-0.2-0.2-0.4-0.3-0.6c-0.6-2.7,1.3-6.2-2.7-7.7c-3.9-1.4-6.8,0.3-9.4,3c-0.4,0.4-0.7,0.7-1.1,1.1
		c-10.4,10.1-19.1,9.3-27.4-2.5c-3.2-4.6-7.1-4.9-10.8-0.7c-1,1.2-2.2,2.3-2.4,4c0,1.8,0,3.5,0,5.3
		C355.7,1147.9,360.7,1151.7,364.1,1156.4z"/>
	<path class="st43" d="M904.2,930.6c2.8,1.3,5.5,0.7,8.5-1.2c3-1.8,5,1.8,7.4,2.8c6.1,2.5,12.7,3.7,18.3,7.8
		c11,8.1,17.6,18.6,19.2,32.1c0.2,1.9,0.7,3.3,1.8,4.7c0.7,0.9,0.8,2.2-0.3,2.7c-1.1,0.6-2.2-0.4-2.4-1.4
		c-1.8-8.2-7.7-13.6-13.3-19.1c-3-2.9-7-5.5-11-6.5c-5.8-1.4-10.9-4.9-16.9-4.9c-4,0-7.2-2.6-10.6-4.1c-3.9-1.8-4.1-7-4.9-11
		C899.8,931,902.1,930.6,904.2,930.6z"/>
	<path class="st44" d="M139.3,786.3c-12.9,1.7-25,4.5-36.9,8.2c-3,0.9-5.8,2.2-8.7,3.3c-7,2.6-13.7,6.1-21.6,3.4
		c-4.1-1.4-6-6.4-3.2-9.8c2.1-2.6,4-4.5,8.1-5.3c11.1-2.1,22.2-3.6,33.2-6.1c3.6-0.8,6.8-3.8,11-1.9
		C127.2,781,133.3,783.6,139.3,786.3z"/>
	<path class="st45" d="M730.7,1103.4c-0.3-2.2,0.6-4.6-0.6-6.7c-7.4,2.3-14.8,2.2-22.2,0.4c-1.9-0.4-3.6-1.5-5-2.9
		c-3.8-3.8-3.7-6.3,0.7-9.4c1.8-1.3,3.9-2.3,6-3.1c10.2-3.7,19.9-8.5,29.4-13.6c2.9-1.5,5.9,2.4,8.4-0.6c-2.3,5.9-6.3,11.2-8.5,16.8
		C736.5,1090.8,732.1,1096.5,730.7,1103.4z"/>
	<path class="st46" d="M744.2,1029.6c4.2-4.1,9.5-6.6,14.6-9.3c15.3-7.9,18.7-22.2,20.8-37.3c0.1-1-0.7-2.1-1.5-4.2
		c4.6,3.5,5,8.4,7.9,11.8c1.2-1,0.4-2.3,0.7-3.4c6.5,7.7,1.6,15.7,0.5,23.6c-0.3,2-2.6,1.4-3.9,2.1c-4,1.8-7.8,3.8-8.3,8.8
		c-0.3,3.2-3.3,3.8-5,5.7c-1.4-0.4-1.4,5.9-3.8,0.8c-0.4-0.8-1.3-0.5-1.9-0.1c-5.7,4-14.2,3.7-17.4,11.8c-2.2-1.6-1-3.8-1.6-5.4
		C744,1033.1,743.2,1031.6,744.2,1029.6z"/>
	<path class="st47" d="M882.8,847.2c-1.3,0.2-2.9,0-3.6,0.8c-5,5.1-12.1,6.7-17.4,11.5c-3.8,3.5-9.5,5-15.1,2.1
		c-1.3-0.6-2.1-1.3-1.6-2.8c0.7-1.9,0.8-4,2.2-5.8c4.7-5.9,9.5-12.1,16.1-15.5c5-2.6,10.5-5.1,16.3-6.2c3.9-0.7,4.9,2.8,6.5,4.9
		c1.7,2.2-0.6,6.1,2.7,8.4c0.5,0.3-1.6,1.5-2.5,2.3C885.2,847.8,884.2,848.8,882.8,847.2z"/>
	<path class="st48" d="M387,1195.8c3.3,2.6,4.2,7.5,7.9,8.8c6.1,2.2,11,6.5,17.2,8.6c2.3,0.8,4.1,3.2,7.1,2.4
		c0.7-7.3-3.5-11.6-8.8-15.6c-3.4-2.6-5.8-6.5-8.6-9.8c-4.1-4.8-6.1-11.7-13.2-13.6c-4-1.8-8.4-0.6-12.6-1.7
		c-2.2-0.6-2.3,1.8-1.3,3.7C377.8,1185,381.3,1191.3,387,1195.8z"/>
	<path class="st49" d="M215.5,733.8c0-0.2,0-0.4,0.1-0.5c2.3-1.9,13.5-0.7,15.6,1.6c2.9,9.1,6.1,18.2,10.7,26.6
		c0.9,1.6,0,3.1-0.5,4.5c-0.6,1.5-1.9,1.4-3.1,0.9c-4.4-1.7-8.1,0.5-11.5,2.7c-2.6,1.6-3.5,0.7-4-1.7c-1.2-5.3-0.6-10.8-1.6-16.3
		C219.9,745.4,218.5,739.4,215.5,733.8z"/>
	<path class="st50" d="M339.4,1133.9c0.1-0.2,0.6-0.1,1.9-0.1c-2.9,4.8,1.7,7.3,2.9,10.9c0.1-1.2,0.8-2.9,0.2-3.6
		c-4.1-4.7-2.2-10.2-2.3-15.4c-1.5,0.2-0.6,2.9-2.8,2.5c0-2.3,2.4-6.5-3.3-4.5c-2.9-6.8-7.1-1.9-10.8-1.3c-1.5,0.2-3.2,0-3.2,2.3
		c3.3,2,6.2-1.6,9.8-1c-1.2,1.6-2.8,2.2-3.4,3.7c-0.8,1.9-0.2,3.2,1.8,3.4c4.6,0.4,3.5,2.8,1.9,5.3c-3.5,5.6-9.5,5.6-14.9,5.8
		c-5.9,0.2-7-1.3-8.3-6.9c-1.1-2.1-6.1-1.8-3.9-6.1c-3.1-2.8-6.7-2.7-9.3,0.1c-3.1,3.3-7,3.3-10.7,4.1c1.4,1.1,2.7,2.2,4.1,3.4
		c3.9,0.6,4.9,5.2,8.5,6.2c0.8,1.2,1.5,2.4,2.3,3.5c1.4,1.7,3.3,5.1,4.8,4c5.2-3.9,10.9-1.4,16.3-2.2c5.6-0.8,10.9-2.1,15.8-5.3
		C340.4,1140.2,337.9,1136.5,339.4,1133.9z"/>
	<path class="st51" d="M776.8,935.7c1.7-0.2,3.4,1.3,4,2.5c3.1,5.8,10.2,7.8,12.7,14.4c0.7,1.8,5.8,2.8,5.5,5.8
		c-0.3,2.3-3.3,4.3-5.2,6.3c-5.7,6.1-4.8,6-10.7-0.7c-5.4-6.2-10.6-12.5-16.3-18.4c-2.1-2.2-1.8-2.8,0.3-4.2
		C770.2,939.1,771.9,935,776.8,935.7z"/>
	<path class="st52" d="M394.2,1181.5c5.7,9,11.9,17.6,20.7,24c2.9,2.1,4.8,5.1,0.2,8.1c1.4,1,3.2,0.4,4,1.9
		c3.8,0.8,7.7,1.5,11.5,2.3c0-1.4-1.7-1-2.1-2.3c2.1-0.2,4.9,0.3,5.6-1.9c0.6-2.1-0.7-4.5-2.3-6.2c-2.9-3-5.9-5.6-9.9-7.4
		c-9.7-4.3-17.3-11.3-22.7-20.6c-1.9-1-3.4-2.5-4.4-4.4c-2.2-0.2-4.2,0.8-6.2,1.4C389.4,1179.3,392.8,1179.2,394.2,1181.5z"/>
	<path class="st53" d="M342.1,1067.6c0-1.7,0-3.5,0-6c-2.8,2.4-5.4,3.6-8.5,3.3c-12.7-1.2-17.3-6.1-8.8-18.2c2.3-3.2,5.2-6,6.7-9.8
		c3.5,4,7.9,7.5,10.1,12.1C344.4,1054.8,344.9,1061.4,342.1,1067.6z"/>
	<path class="st54" d="M839.6,903.4c-0.3,1.5-0.5,3.1-1,4.6c-0.8,2.4,0.3,6-2.6,6.9c-3.8,1.2-5.6-2.9-7.2-5
		c-5.3-6.5-10.6-12.6-18.5-16c-1-0.4-1.7-1.4-1.5-2.5c0.2-1,1.3-1,2.1-1.1c4.8-0.5,9.5-2.7,14.3,1.2c3.6,2.9,8.9,3.5,12.2,7.4
		C838.6,900.3,840,901.4,839.6,903.4z"/>
	<path class="st55" d="M841.8,885.8c-3.3-1-6.6-2-9.9-2.9c-1.8-0.5-2.7,0.1-2,2.1c-4.8-3.1-10-3.2-15.3-1.6c-3.6,1.1-7.4,1-10.7,3.1
		c-3.5,2.2-5.8-1-8.5-2.1c-1.4-0.6-0.5-1.9,0.4-3c2.6-3.3,13.8-7,17.9-6.3c8.5,1.3,15.4,7.3,24.1,7.6
		C839.6,882.8,840.7,884.5,841.8,885.8z"/>
	<path class="st35" d="M571.9,1185c5.4,1,4-3.7,5.9-5.5c0.8-0.8,1-2-0.1-2.8c-0.8-0.6-1.6-0.1-2.3,0.5c-2.7,2.1-4.1,1.4-4.3-2
		c-1.3-0.2-1.8,0.7-2.3,1.7C570,1179.6,565.3,1183.8,571.9,1185z"/>
	<path class="st56" d="M364.1,1156.4c1.1-0.8,2.9-1.6,0.3-2.7c-2.1-0.8-2.9-2.9-4.4-4.1c-2.7-2.2-2.1-6.3-5.2-8.1
		c-0.8,0-1.6,0.1-2.3,0.1C354.5,1148,357.4,1153.7,364.1,1156.4z"/>
	<path class="st34" d="M521.6,1193.2c2.8-0.9,5.6-1.7,8.3-2.5c4-1.2,8.8-0.5,12.1-4c-2.5-2.7-4.4,0.9-5.8,1.4
		c-4.8,1.7-10.8-1-14.5,4c-0.1,0-0.2,0.1-0.4,0.4C521.1,1192.7,521.3,1193,521.6,1193.2z"/>
	<path class="st38" d="M289.2,1136.4c0.8-0.5-1-4.1,1.7-1.8c2.6,2.2,4.6,5.3,6.8,8c-1,0.6-1.1,1.5-1.2,2.5
		C294.6,1141.7,290.4,1140.3,289.2,1136.4z"/>
	<path class="st35" d="M521.6,1193.2c0-0.4,0-0.7,0-1.1c-8-1.3-15.9-1-23.5,2.1c1.9,0.1,3.8-0.1,5.7-0.4
		C509.7,1193.1,515.6,1191.7,521.6,1193.2z"/>
	<path class="st57" d="M314.6,769.8c-4.3,2.7-5.1,7.9-8.1,11.6c-1.1,1.4-2,3.1-3.4,4.3c-0.2-3.2,2.5-5,3.7-7.5
		c1.1-2.3,3.4-3.9,3.7-6.8C310.7,768.8,312.9,769.6,314.6,769.8z"/>
	<path class="st52" d="M435.9,1217.6c4.2,1.4,8.2,3.6,12.8,3.2c-4.1-2.7-9.3-2.6-13.5-5c-0.9-0.5-1.9,0.6-2.3,1.7
		C433.9,1217.5,435,1217.3,435.9,1217.6z"/>
	<path class="st27" d="M723,1141c1.8,0.1,1.2-1.7,1.3-2.8c-4.5,0.6-6.5-1.7-6.1-7.3C715.5,1136.2,717.7,1140.8,723,1141z"/>
	<path class="st42" d="M408.8,1139.6c1.1-4.3,3.7-4.4,6.9-2.3c1.3,0.8,2.3,2.1,3.4,3.1c-0.1-3.3-1.8-4.6-7.4-5.5
		c-4.4-1.1-4,1.5-3.4,4.3C408.5,1139.3,408.7,1139.4,408.8,1139.6z"/>
	<path class="st34" d="M454.1,1232.3c-4.6,0.1-9.1-2-13.8-1.1C444.7,1233.4,449.3,1234.1,454.1,1232.3z"/>
	<path class="st24" d="M369.7,1192.4c1.3,0.7,2-1.1,3.1-1.4c-0.5-3-3.4-4.6-4.3-7.3c-0.7,2.2,1.3,3.8,1.3,5.8
		C369.8,1190.4,368,1191.5,369.7,1192.4z"/>
	<path class="st35" d="M497.7,1194.2c-0.6-0.3-1.5-0.9-1.8-0.7c-3.5,2.6-7.3,2.1-11.2,1.5c-0.4-0.1-1,0.8-1.4,1.3
		C488.2,1196.7,493.1,1196.8,497.7,1194.2z"/>
	<path class="st56" d="M352.6,1128.9c-5.4,4.2-0.4,8.5-0.1,12.7C353.5,1137.4,350.5,1133.2,352.6,1128.9z"/>
	<path class="st34" d="M672.3,1113c0.4-0.2,0.2-1.9,0.3-3c-1.9,3.6-8.1,5.6-4.2,11.4C669.2,1118.4,668.5,1114.7,672.3,1113z"/>
	<path class="st57" d="M303,785.6c0.4,4.5-1,8.4-4.2,11.7C298.8,792.9,302.2,789.7,303,785.6z"/>
	<path class="st58" d="M414.9,845.6c-0.9,4.6,1.3,9.4-1.2,13.8C414,854.8,411.8,850,414.9,845.6z"/>
	<path class="st59" d="M393.8,946.1c-1.3,0.9-1,3.7-3.6,3c1.9-3.5,3.7-7,5.6-10.6C396.9,941.6,394.2,943.5,393.8,946.1z"/>
	<path class="st34" d="M469.7,1230.8c-3.6-0.8-6.4,1.2-9.4,2.5C464.2,1235.1,466.7,1231.9,469.7,1230.8z"/>
	<path class="st60" d="M722.4,948.4c-0.3,2.9,3.5,0.9,3.8,3.1c-1.2,0-2.4-0.2-3.6,0c-1.4,0.2-3,0.9-3.2-1.1
		C719.3,948.6,721,948.4,722.4,948.4z"/>
	<path class="st61" d="M866,894.2c4.8,1.8,3.4,6.1,4.1,9.6C868.7,900.7,867.4,897.4,866,894.2z"/>
	<path class="st62" d="M341.9,1254.1c-2.8,4,1,7.2,1.1,10.9C345.2,1261.1,341.8,1257.8,341.9,1254.1z"/>
	<path class="st40" d="M626.7,1132.9c2.5-1.1,1.3-3.8,2.5-5.5c-1.8-0.2-3.8-0.7-2.5,2.5C627,1130.7,626.7,1131.9,626.7,1132.9z"/>
	<path class="st63" d="M712.7,1181.5c-2.1,0.8-4.2,1.6-6.3,2.4c-3.9,3.2-8.9,4.1-13.3,6.3c-2.6,1.3-5.6,1.8-7.7,3.8
		c-0.9,0.9-2.3,2-1,3.6c1.1,1.3,2.1,0.1,3.2-0.3c2.7-1.2,5.3-2.3,8-3.4c5.1-2.1,10.2-4.1,15.3-6.1c1.8-2.9,3.6-5.8,5.2-8.7
		C715,1179.7,713.8,1180.5,712.7,1181.5z"/>
	<path class="st63" d="M718.7,1157.2c-8.3,6.3-18.1,8.7-27.2,12.7c-1.5,0.6-2.5-0.1-2.5-1.7c0.1-7.6,2.7-15.1,6.8-20.7
		c3.7-5,3.7-10.5,6.3-15.4c-0.4-0.3-0.7-0.6-1.1-0.9c-3.5-2.4-4.7,0.8-5.8,2.8c-5.1,8.9-10.2,17.9-11.3,28.5
		c-0.3,2.5-2.5,4.8-0.7,7.5c3.4,7.9,4.6,7.2,14.7,4.2c7.2-3.1,15.4-3.7,21.4-9.3c2.1-1.1,4.1-2.3,6.2-3.4c1.6-3.5,3.2-7,4.7-10.6
		C726,1152.6,722.1,1154.6,718.7,1157.2z"/>
	<path class="st64" d="M744.2,1029.6c0.5,1.6,1.5,3.1,1.1,4.9c-2,7.8-7.4,11.1-15,12c-1.7,0.2-3.8,0.4-5.2,1.9
		c-3.4,0.7-6.8,1.4-10.2,2.1c-6.1-2.5-12.5-1.1-18.7-1.2c-4.2-0.1-8.6,0.5-12.1-2.9c0.7-0.7,1.5-1.5,2.2-2.2
		c4.8-2.4,10-1.6,14.8-0.9c6.2,0.9,12.1,0.4,18.1-0.5c5-1.5,10.2-2.7,15-4.9c4.2-1.9,4.7-3.7,1.8-7.3c-4.3-5.4-9.7-9.1-16.9-9.5
		c-1.4-0.3-2.8,0.1-4.1,0.2c-1.8,0.2-3-0.8-3.7-2.3c-0.9-1.9-0.4-3.4,1.7-4.1c1.9-1.7,3.7-3.4,6.1-0.6c0.5,0.6,1.5,1,2.3,1.1
		C731.4,1016.3,738.7,1021.5,744.2,1029.6z"/>
	<path class="st65" d="M533.9,1218.3c0.7-2.2,5.8-0.6,4.2-4.9c-4.8-2.8-9.8-1.9-14.8-0.6C525.2,1220.8,526.1,1221.3,533.9,1218.3z"
		/>
	<path class="st66" d="M120.2,596.5c6.5-2.7,12.7-5.7,16.9-11.7c0,0,0.1,0.1,0.1,0.1c2.3-0.9,4.4-3.8,7-1.1c2.4,2.4,1.1,5.1,0.2,7.8
		c-2.3,6.7-3.4,13.5-0.2,20.5c-1.8-12.8,1-24.4,12.2-30.9c10.6-6.2,22.4-6.8,32.8,2c1.6-1.2,0.4-2.3,0.2-3.3
		c-0.6-2.2-0.7-4.2,1.4-5.7c1.7-1.2,3.7-1.2,5.5-0.2c2.2,1.2,3.2,3.3,3,5.7c-0.2,2.5-1.4,4.7-2.5,6.9c-2.4,4.5-4.3,9.2-5.2,14.3
		c-0.6,3.2-2.3,5.9-4.3,8.3c-3.8,4.6-5.5,9.8-6.5,15.7c-0.9,5.8-1.9,11.9-5.5,17c-1-0.7-2.1-1.4-3.1-2.1c-4.6-4.6-9.5-8.7-15.9-10.5
		c-3.2,0.5-6-1.2-9-1.5c-10.5-1.2-18,3.8-20.6,14.2c-1.8,6.7,1,12.5,3.9,18.2c3.6,6.4,6.7,13.1,11.9,18.4c3.4,3.5,7.2,6.6,11.5,9
		c1.7,1,4.1,1.4,4.6,3.8c4.1,3.1,9.2,4.2,13.9,6.3c-3,0.6-5.7,0.2-8.4-1.1c-2.8-1.4-5.4-3.1-8.9-2c-1.8,0.6-2.8-1.2-3.9-2.3
		c-5.9-5.8-12.3-11.2-17.4-17.6c-6.4-8-9.8-17.6-11.2-27.7c-0.5-3.5-1.4-5.7-5.4-5C113.4,626.5,113.5,611.3,120.2,596.5z"/>
	<path class="st67" d="M266.1,669.5c4.6-1.4,9.2-2.8,13.8-4.2c-9.5-0.4-18.4,1.8-27.6,3.1c-3.2-0.7-3.7-2-1.6-4.4
		c2.3-2.6,5.6-3.7,8.8-4.3c5.7-1.1,8.1-4.6,9.3-9.9c1.3-5.7,1.8-11.5,0.5-17.1c-0.9-3.8-0.6-6.8,2.1-9.6c4.2-3.8,3.9-10.2,8.4-13.8
		c3,1,4.1,3.6,2.8,5.8c-3.9,6.5-2.8,13.1-1.3,19.8c1.7,7.8,0,15.4-1.6,22.9c-0.8,3.5,0.3,4.1,3.3,3.5c3.3-0.7,6.6-0.8,10-0.6
		c1.9,0.1,4-0.2,5.1,1.9c-0.4,1.5-1.6,0.9-2.4,1c7,1,13.6,3.1,18.2,9.1c3.5,4.5,3.8,7.8,1.4,11.7c-1.4-0.3-2-1.4-2.3-2.6
		c-2-7.8-7.6-11.6-14.8-13.7c-4.8-0.9-9.6-0.7-14.4,0c-7.5,2.1-14.8,4.4-21.1,9.1c-1.2,0.6-2.3,1.2-3.7,0.6
		c-0.7-2.3,0.9-3.5,2.4-4.1C263.4,672.9,264.8,671.4,266.1,669.5z"/>
	<path class="st68" d="M298.9,667.2c9.2,2.3,14.8,7.9,15.7,17.6c2,3.6-0.7,6.1-2.1,8.9c-5.6,8.2-13.6,13.4-22.2,17.8
		c-4.3,2.2-9,3.4-13.7,4.3c0,0,0,0,0,0c-4.1,0.1-8.2,0.2-12.4,0.1c-3,0-5.9-0.3-7.8-3c0.1-0.8,0.6-1.3,1.2-1.7
		c1.4-0.3,2.9-0.3,4.4-0.4c17.8,4.3,31.5-2.1,42.5-16c2.9-3.7,3.2-8.1,4.2-12.3c0.9-4.2-1-7.7-6.1-10.6c-2-1.2-4.1-1.8-6.4-2.2
		c-1.5-0.3-3.2-0.1-3.8-2.4C294.6,666.5,296.7,666.7,298.9,667.2z"/>
	<path class="st69" d="M165.7,638.9c11.1,8.7,18.2,19.8,18.9,34.2c0.5,10.5-5.2,16.9-15.7,18.6c-1.1,0.6-2.4,1-3.1-0.2
		c-0.6-1.1,0.6-1.7,1.4-2.3c1-0.7,2.1-1,3.2-1.5c8.3-2.6,11.1-11.3,9.4-20.5c-1.7-8.6-5.4-16.3-11.8-22.5c-1.6-1.6-3.7-2.9-3.6-5.5
		C164.8,638.5,165.2,638.4,165.7,638.9z"/>
	<path class="st70" d="M171.2,688.7c-1.5,0.7-3,1.4-5.1,2.3c1.3,0.3,2.1,0.5,2.9,0.6c-3.6,2.6-7-0.3-10.5-0.3
		c-13.8-6.1-23-16.6-28.6-30.4c-0.8-1.3-1.2-2.6-0.4-4.1c0.7-0.7,1.4-0.8,2.3-0.5c3.2,3.8,3.4,9,6.3,13.2
		c7.6,10.8,16.6,18.5,30.8,17c0.3,0,0.7,0.1,1,0.3C170.6,687.2,171.1,687.9,171.2,688.7z"/>
	<path class="st71" d="M132,656.8c-0.8,0-1.5,0-2.3,0c-3.5-3.8-3.5-10.4-0.1-14.9c4.6-8.8,11-12.2,20.7-10.3
		c5.7,1.1,11.1,3.1,15.4,7.3c0,0-0.4,0.1-0.4,0.1l-0.4-0.1c-3.6,1.8-5.9-1.2-8.6-2.3c-6-2.6-11.9-2.7-17.6,0.6
		c-2.2,1.3-4,2.9-3.5,5.9C134,647.6,134.1,652.4,132,656.8z"/>
	<path class="st72" d="M234.3,730.9c-3,2.2-5.8,0.2-8.5-0.5c-13.2-3.2-26.3-6.8-39.4-10.2c-2.9-0.7-5.6-1.7-8-3.4
		c15.3,2.4,30.4,5.8,45.2,10.5C227.2,728.5,231.1,728.6,234.3,730.9z"/>
	<path class="st73" d="M257.6,711.7c-0.4,0.4-0.8,0.8-1.2,1.2c-10.3-7-11.7-16.8-3.9-27.4c2-2.6,4.2-5.1,6.3-7.6
		c1-0.4,1.9-0.9,2.9-1.3c1-0.3,1.4,0.3,1.6,1.1c-1.2,3.2-4,5.3-5.9,7.9c-6.7,9.4-6.8,15.2-0.2,24.6
		C257.4,710.7,257.5,711.2,257.6,711.7z"/>
	<path class="st74" d="M125.5,641.9c1.2-11.3,12.1-16.4,20.2-15.5c3.7,0.4,7.1,1.8,10.6,2.9c-1.5,2.1-3.1,0.4-4.7,0.2
		c-11.7-1.9-19.3,1.5-22.9,10.3c-0.8,2.5-0.3,5.4-2.3,7.9C124.4,645.7,125.2,643.8,125.5,641.9z"/>
	<path class="st75" d="M125.5,641.9c0.2,1.4,0.3,2.9,0.5,4.5c1-2.4,1.8-4.5,2.7-6.6c0.3,0.7,0.6,1.4,0.9,2.1c-0.8,5-1.8,10,0.1,14.9
		c0,1.4,0.1,2.8,0.1,4.2C125.8,655.2,123.3,649.1,125.5,641.9z"/>
	<path class="st76" d="M297.8,663.1c-4.3-2.1-8.8-0.9-13.3-0.6c-1.9,0.1-3.8,0.5-5.7,0.6c-2.8,0.1-3.1-0.4-1.7-3.3
		c2.9-6.1,3.7-12.9,3.2-19.6c-0.3-4.6-0.3-9.3-2.4-13.8c-1.5-3.3,0.7-6.6,2.5-9.2c2.2-3.1,1.6-5.4-0.6-8c0-1.8,0.1-3.6,1.1-5.3
		c0.8-4.2,3.2-6.5,7.5-6.5c4.7,0,6.4,2.3,4.3,6.5c-1.5,3-0.3,4,2.4,3.8c5.1-0.3,9.7,1.3,14.2,3.2c4.2,1.7,7.8,4.2,9.6,8.5
		c1.4,3.4,4,4.6,7.4,4.5l0,0c1.3,1.1,2.5,2.4,4.1,3.2c0.8,1,1.5,2,2.3,3c1.2,3.5,0.7,7.5,3.1,10.7c2.3,10.6,1.3,20.6-4.8,30.1
		c-2.4,3.8-5.9,6.3-8.6,9.7c-1.2,1.4-3.2,2-3.3-1.2c-0.1-1.3,0.4-2.9-1.4-3.6c-1.2,0-1.9-0.9-2.4-1.8c-2.9-4.9-7.5-7.4-12.8-8.9
		C300.6,664.9,298.9,664.6,297.8,663.1z"/>
	<path class="st77" d="M175.2,641.9c0.4-7.1,4.6-13.3,4.5-20.7c-0.1-3,1.7-6.5,3.6-8.9c4.3-5.3,6.9-11,8.4-17.7
		c1.1-4.7,3.8-9,5.9-13.4c1.3-2.6,0.3-4.5-1.5-6.1c-1.4-1.3-3.5-1.2-4.9-0.1c-2.1,1.7-1.3,3.6,0,5.6c1.1,1.5,1.5,3.7,0,4.8
		c-1.9,1.4-3.2-0.7-4.3-1.9c-6.3-6.6-14.2-5.4-21.9-4.4c-10.9,1.4-15.8,9.8-19.4,18.9c-1.7,4.1,0.6,8.5,0.3,12.8
		c-0.1,1.7,1.2,3.7-1.2,4.3c-2,0.5-2.6-1.6-3-3c-2-6.7-1.2-13.4,0.8-20c0.7-2.4,3.1-4.5,1.1-7.3c-2.3-3.1-4.4,0.7-6.6,0.2
		c2.4-1.8,4.9-3.6,7.3-5.4c4.3-0.9,7.5-4.1,11.7-5.1c2.4-2.1,5.3-3.8,7.1-6.5c1.8-4.5,6.3-6.4,9.3-9.7c3.4-3.7,6.8-7.5,10.2-11.2
		c2.2-2.9,4.9-4.3,8.5-4c0.6,1.6-0.5,1.5-1.2,1.8c-5.3,2.1-6.2,6.5-2.3,10.4c2.4,2.4,5.3,4.2,8.4,5.2c8.6,2.8,8.6,2.7,8.6,11.8
		c-3,6.4-6.6,12.6-6.4,20c-2.4,3.9-3.4,7.8-1.2,12.4c1.5,3.1-0.1,6.2-1.9,8.9c-4.4,6.2-7.8,12.9-10.6,20c-2,5-1.4,7.8,3,10.9
		c2.7,2,5.5,3.9,7.2,6.9c1,1.8,2.1,4.1-1.5,4.4C187.2,651.1,181.2,646.5,175.2,641.9z"/>
	<path class="st2" d="M193.2,655.7c2.6-1.2,1.5-2.9,0.4-4.2c-2-2.4-4.2-4.6-7.1-6.1c-4.5-2.4-5.5-6.8-3.6-11.5
		c3.2-8,7.2-15.5,12-22.5c1.7-2.4,2-4.9,0.7-7.4c-2.6-4.8-1.8-8.6,2.7-11.7c0.2,3.4,0.1,6.9,0.6,10.2c0.3,1.7,0.4,3.9,2.8,4.5l0,0
		c-3.8,4.4-3.7,9.9-4.3,15.2c-0.4,4.3,2.7,6.1,6.3,7c3.2-1.9,6-2.7,6.6,2.4c5.8,1.7,9.5,8.6,16.7,7.1c0.8,0.6,1.1,1.5,0.7,2.3
		c-4.1,7.1-5.1,15.2-7.5,22.8c-1,3-1.9,4.3-5.4,3.2C206.8,664.8,199.8,660.7,193.2,655.7z"/>
	<path class="st78" d="M271.4,623c-1.4,3.3-1.1,6.2-0.4,9.9c1.6,8.1,0.4,16.4-3.1,24.1c-2.1,4.6-7.4,3-11,4.9
		c-1.8,0.9-3.8,1.7-5.4,3c-1.7,1.3-1.9,3,0.9,3.6c-9,3.1-18.1,2.7-27.2,0.9c-2.3-0.5-3.5-1.6-2.6-4.4c1.9-6.1,3.6-12.4,4.8-18.7
		c0.5-2.7,3.4-2.8,3.9-5.1c-0.2-1.9,0.7-1.9,2.1-1.2c0.1,1.2-0.3,2.5,1.2,3.1c0.3-0.4,0.5-0.4,0.8,0c3.2-0.2,6.4,3,9.5,0l0,0
		c0.8,0,1.6,0,2.3,0c0.9-0.8,1.6-1.7,3-1c0.7-0.5,1.5-1.4,2.1-1.3c6.4,0.9,9.5-0.8,11.2-7.4C264.6,628.4,267.2,625.2,271.4,623z"/>
	<path class="st79" d="M326.2,624.1c-3.7,3.4-6.2,1.2-7.7-2.1c-4.3-9.8-12.9-11.7-22.1-12.7c-0.9-0.1-1.7,0-2.6,0
		c-1.6,0-3.3,0.1-4.2-1.6c-0.9-1.8,0.5-2.9,1.5-4.1c0.8-1,2.7-1.7,1.6-3.4c-0.8-1.2-2.3-1.4-3.8-1.5c-4.2-0.4-6.3,2.2-8.1,5.3
		c0.4-3.2,0.7-6.3,1.1-9.5c1.7-1.6,1-3.6,1-5.5c0.1-7.2,1.1-8.5,8.2-9.2c4-0.4,7.9-0.7,11.9-1.1c7.2-0.8,7.6-1.4,3.7-7.5
		c3.3,0.6,6.1,2.5,9.5,0.3c1.4-0.9,0.1,1.7,0.5,2.6c-2.9,0.4-3.3,2.5-3.4,5c-0.1,6,0.6,11.9,2.6,17.6c2.3,6.3,3.3,13.2,7.1,18.9
		C323.2,618.8,325.7,621.1,326.2,624.1z"/>
	<path class="st80" d="M204.8,606.1c2.6,4.7,6.2,8.5,10.5,11.6c1.6,1,3.5,1.3,5.2,2.3c12.5,7.4,25.4,7.9,38.6,2
		c1.1-0.5,2.3-0.9,3.5-1c1.1,0.2,2.4,0.1,2.3,1.8c-16.4,12.4-40.2,12.8-56.2-6.3c-1.9-2.2-3.4-4.8-5-7.2
		C203.3,608,202.2,606.4,204.8,606.1z"/>
	<path class="st81" d="M217.4,616.8c-6.4-4.9-10.9-11.1-12.7-19.1c-0.6-1.3-1-2.5,0.6-3.4c2,0.7,2.2,2.6,2.8,4.2
		c2.1,4.9,5.1,9.1,9.2,12.5c12.2,10.7,31.5,12.6,44.4,4.3c3.2-1.6,5.3-4.8,8.6-6.3c0.9,0.1,1.4,0.7,1.5,1.5
		c-1.6,5.4-6.3,7.8-10.5,10.5c-13.3,6.3-26.5,6.6-39.7-0.6C220,619.5,218.3,618.7,217.4,616.8z"/>
	<path class="st82" d="M215.4,569.2c18.6-12.3,46.4-5.6,57.4,13.9c0.4,0.7,1,1.4,1.5,2.1c0.7,0.5,1,1.2,1,2.1
		c-0.1,1.1-0.5,2.1-1.9,2.1c-2.6-2.3-3.4-5.8-5.7-8.3c-11.2-12.6-25.4-15.6-41.3-13.2c-3,0.9-5.8,2.5-9,3.1
		C216.4,570.9,215.2,570.8,215.4,569.2z"/>
	<path class="st83" d="M217.4,616.8c6.4,3.1,12.5,6.9,19.8,7.5c8.6,0.7,16.7-0.9,24.4-4.6c0.7,0.1,1.2,0.5,1.6,1.1
		c0.1,0.5,0,0.9-0.4,1.1c-15.7,7.9-30.9,7.7-45.7-2.4c-0.7-0.5-1.2-1.2-1.9-1.8C216,617.4,216.7,617.1,217.4,616.8z"/>
	<path class="st84" d="M227.1,638.9c-5.4,5.1-8.7-1-12.1-3c-2.2-1.3-7.6-1.2-6.5-6.6c0.1-0.4-3,2.2-4.7,0.1c0.8-3.1,2.3-5.9,5.9-4.7
		c2.3,0.8,4.8,3.1,1.9,6.6C216.9,628.9,226.4,633.9,227.1,638.9z"/>
	<path class="st85" d="M263,621.1c-0.4-0.5-0.9-1-1.3-1.5c3.8-2.4,7.3-5.3,9.9-9.1c2.9-7.6,4.9-15.3,3.1-23.6
		c-0.1-0.6-0.2-1.2-0.3-1.7c0.3-1.8,1.4-3.1,3.1-2.9c1.9,0.3,1.2,2.2,1.2,3.5c0.2,8,0.8,16-3.2,23.4C273.1,615,270,620.1,263,621.1z
		"/>
	<path class="st86" d="M215.4,569.2c0.4,0.9,1.2,0.9,2.1,1c0.4,2.2-1.5,3.1-2.8,4.1c-5.1,4.2-7.5,9.5-7.5,16.1c0,1.5,0,3.2-1.6,4.2
		c-0.3,1-0.6,2-0.9,3.1C201.7,587,205.9,575.6,215.4,569.2z"/>
	<path class="st87" d="M204.8,606.1c-1.4,0.7-0.8,2.1-1.1,3.2c-0.6-0.8-1.3-1.5-1.9-2.3c0,0,0,0,0,0c-1.4-5.5-3.3-10.9-1.5-18.3
		C200.7,595.9,203,600.9,204.8,606.1z"/>
	<path class="st88" d="M263,621.1c5.3-2.8,9.5-6.8,12.5-12c1.3,4-2.3,5.9-3.9,8.5c-1.5,2.3-3.6,4.6-6.7,5.3c-0.4-0.9-1.3-0.9-2.1-1
		C262.9,621.7,263,621.4,263,621.1z"/>
	<path class="st89" d="M250.2,642c-1,0.3-2,0.7-3,1c-0.1-1-0.2-2-0.3-3.1c-0.1-1.3-2.7-2.7-0.1-3.7c2.1-0.8,2.3,1.6,2.9,2.9
		C250,639.9,250,641,250.2,642z"/>
	<path class="st90" d="M235.3,643l-0.4,0c0,0-0.4,0-0.4,0c-0.3-1.2-0.2-2.4,0.6-3.4c0.7-0.9,0.6-2.6,2.3-2.2
		c1.3,0.4,1.5,1.8,1.9,2.9c0.6,2.1-1.2,1.5-2.2,1.8C236.5,642.2,235.9,642.6,235.3,643z"/>
	<path class="st91" d="M244.8,643c-4.3,0.4-3.1-3.3-3.6-5.4c-0.2-0.9,1.8-1.2,2.3,0C244.2,639.2,245.4,640.9,244.8,643
		C244.8,643,244.8,643,244.8,643z"/>
	<path class="st92" d="M233.3,639.9c-0.9,0.1-1.6,0.4-2.1,1.2c-1.4,0.5-2.5,0.5-2.2-1.5c0.2-1.5,0.7-2.9,2.5-2.9
		C233.6,636.8,233.3,638.5,233.3,639.9z"/>
	<linearGradient id="SVGID_2_" gradientUnits="userSpaceOnUse" x1="452.5006" y1="791.9269" x2="557.9288" y2="997.8796">
		<stop  offset="0" style="stop-color:#F2EFC4"/>
		<stop  offset="1" style="stop-color:#DAB03D"/>
	</linearGradient>
	<path class="st93" d="M637.6,1031.2c-1-4-0.9-8.3-3.1-11.9c-3.4-5.5-4.5-12-8.1-17.5c-4.4-6.7-4.7-15.3-9.8-21.8
		c-3.5-8.5-7-17-10.5-25.6v0c-1.1-2.8-2.1-5.6-3.2-8.4c-2.8-6.6-5.6-13.3-8.5-19.9l0,0c0.8-3.5-1.3-2.7-3.2-2.1
		c-0.1-0.1-0.1-0.2-0.2-0.4c1.5-2,0.9-4.1,0.2-6.2c-0.4-1.3-2.5-2.2-0.9-3.9c1-1,1.2-2.2,0.7-3.4c-4.6-10.5-3.7-22.1-6.1-33
		c-0.2-0.8,0.7-1.9,1-2.9c0.1-2,0.2-4.1,0.3-6.1c0,0,0,0,0,0c0,0,0,0,0,0c0.2-5.4,0.4-10.8,2-16c1.4-4.5,4.5-8.5,4.3-13.6
		c6-5.1,6.1-13.1,9-19.6c3.4-7.7,7.5-14.9,12-21.8c3.1-4.7,7.9-8.2,12.7-11.4c1.3-0.8,2.4-1.9,1.2-3.4c-1.1-1.3-2.2-0.1-3.2,0.6
		c-1.6,1.1-3,2.6-4.8,3.2c-9.7,3-17.9,8.1-25.3,15.1c-7,6.5-13.9,12.9-18.3,21.6c-1.9,3.7-4.3,7.1-6.8,10.4c-1.3,1.8-3.3,3-5.2,1
		c-3.1-3.2-5.3-6.4-5.4-11.5c-0.3-10.4-1.8-20.7-0.6-31.1c0.2-1.5,1.2-5.3-1.7-6.4c-3.3-1.3-2.7,3-4.7,3.8c-0.4,0.2-0.6,0.8-1,1.2
		c-4.9,4.1-9.1,8.8-12.6,14.1c-3.9,5.9-7.6,11.8-14.9,14.4c-2.2,0.8-4.8,2.2-6.5,4.8c-3,4.6-5.9,4.6-9.5,0.4
		c-2.2-2.5-4.1-5.1-4.8-8.6c-1.9-10.7-6.1-20.8-9.6-31c-0.3-0.9,0.1-2.3-1.4-2.5c-1.5-0.2-1.2,1.3-1.7,2.1
		c-5.1,8.8-4.5,19.6-10.5,28.4c-3.2,4.8-6.8,9.2-10.4,13.6c-0.9,1.1-4.1,0.3-4.2-0.6c-0.2-2.8-2.9-3.4-3.8-5.7
		c-2.4-6.1-5.6-11.9-9-17.6c-6.8-11.4-15.7-21.2-25.5-30.2c-3.5-3.2-7-7.8-11.1-8.6c-5.9-1.2-10.6-4.7-15.3-7.1
		c-9.3-4.7-19-4.9-28.6-6.1c-3.4-0.5-7.3-0.6-10.7,0c-6.2,1.1-12.5-0.5-18.9,2.2c-4.1,1.7-8.7,4-14,4.5c-5.2,0.5-9.7,7.4-12.9,13.1
		c-0.9,1.2-3-0.1-3.7,2.1c-1.7,5.1-5.3,9.1-7.9,13.7v0c-0.4,4.2-2.4,7.9-4.2,11.7c-1.5,9.6-3,18.9,0.7,28.8c3,8,7.4,14.4,13.3,20
		c4.1,3.9,9,7.9,14.9,7.6c5.6-0.3,11.4,0.4,16.9-1.6c1.3-0.5,2.9-0.6,3.4-2c0.5-1.6-0.9-2.4-2-3.4c-5.5-5-11.2-9.9-14.2-17
		c-0.5-1.2-0.5-2.9-1.3-3.7c-5.1-5.4-5.3-12.4-5.4-18.9c-0.1-8.6,4-16.3,9.2-22.7c6.2-7.6,13.8-14.9,24.6-14.4
		c4.6,0.2,9.3-1.4,13.8,0.6c4.9,2.3,9.8,4.4,13.9,8.2c3.6,3.3,7.2,7.1,9.4,10.9c3.1,5.3,6.2,10.9,8.2,17c2.8,8.5,5.3,17.1,7.1,25.7
		c0.9,4.5,2.6,8.7,3.5,13.1c-2.3,4.5,0.6,9.4-1.2,13.8l0-0.1c-0.3,0.8-0.3,1.5-0.1,2c-0.4,8.2-2.6,16.2-2,24.4c0,0,0,0,0,0
		c0,0,0,0,0,0c-1.2,8-6.4,14.9-6.3,23.2c-2.7,6.3-1.8,13.9-6.3,19.5c-2.5,3.1-3,6.5-3.2,10.1c0.1,3-2.5,4.9-2.9,7.7
		c-1.2,0.6-0.8,3.2-2.7,2.8c-0.9,1.2,0.9,2.9-0.8,4c0,0,0,0,0,0c-2.4,6.6-4.3,13.5-8.1,19.5c-0.8,6-0.6,12.2-4.6,17.5
		c-0.7,1-1.7,3.1-0.4,4.4c1.4,1.3,2.5-0.5,3.5-1.3c1.3-1,2.8-1.3,4.3-1.7c6.5-2.1,13-4.3,19.3-6.8c4.2-1.7,8.5-3.2,12.7-4.5
		c5.5-1.7,11-3.7,16.4-5.5c13.2-4.2,26.2-8.6,39.9-11.2c2.9-0.6,6.9-1.2,8.9-4.5c4.2,0.1,4.8,0.9,4,5.2l0.1-0.1
		c-2.4,5.5-5.1,11-7.1,16.7c-1.2,3.2,1.5,5.8,3.9,4c2.8-2.1,5.9-1.7,8.8-2.3c10.7-2.4,20.1-8,30.7-10.7c7.4-1.9,15-3.3,21.9-6.6
		c-0.3-0.4-0.2-0.7-0.1-1.1c0.1,0.3,0.1,0.7,0.1,1.1c2.9-0.1,5.7-0.3,8.5-1c6.9-1.7,13.2-5.4,20.6-4.9c2.5,0.2,5.3-3,7.1-1.3
		c2,2-1.2,5.2-0.5,7.9c-0.8,0.7-1.6,1.3-2.3,2.1c-6.2,7-10.7,15.1-15,23.5c-2.7,5.3-6.3,10.1-9.4,15.2c-1.1,1.8-0.2,3.7,1.7,3
		c2.6-1.1,5.4,0.2,8-1.7c2.2-1.7,6.7-3.2,7.9-2.8c4.5,1.3,7.5-2.3,11.5-2.3c2.2,0,5.4-1.5,8-2.4c3.8-1.3,7.7-2.2,11.6-3.2
		c0.7,1.8,1.6,3.3,1.1,5.5c-1.5,6.7,0.5,13.3,1,19.9c0.4,5.1,3,10,1.8,15.4c-0.5,2.1,0.1,4.8,2.1,6.1c1.7,1.1,3.3-0.7,4.6-1.7
		c3.7-3,8.2-3.6,12.6-4.7c2.7-0.7,4.8-3.5,8.3-1.9C637.1,1037.5,638.2,1033.7,637.6,1031.2z M495,848.6c1.6,0,3.3,0.1,4.9,0.1
		C498.3,849.1,496.7,849,495,848.6z M609.2,968.2c-0.2-0.1-0.3-0.2-0.5-0.3c0.1-0.1,0.3-0.1,0.4-0.2
		C609.2,967.8,609.2,968,609.2,968.2z M486,968.1C486,968.1,486,968.1,486,968.1c0.2,0.1,0.3,0.1,0.4,0.2c-0.1,0.2-0.2,0.4-0.3,0.6
		C486,968.6,486,968.4,486,968.1z"/>
	<path class="st94" d="M594.5,926.1c-0.2-2.1-1.7-2.2-3.2-2.1c0-2.7,0.4-5.5-1.7-7.9c-0.7-0.8-0.4-2,0.8-2.6
		c2.2,3.4,1.4,8.1,4.9,10.9C595.4,924.5,594.8,925.5,594.5,926.1z"/>
	<path class="st95" d="M481.5,958.9c1.4-1.9,2.8-1,3.9,0.3c1.4,1.5,2.3,3.2,0.1,4.9C485.5,961.3,484.8,959.1,481.5,958.9z"/>
	<path class="st96" d="M182.8,547c-2.6,7-8.6,11-13.8,15.7c-1.9,1.7-4,3.2-5.7,5.2c-2.7-1-0.2-1.8,0.2-2.3c4.1-4.3,8.4-8.4,12-13.2
		c1.6-2.1,3.4-4.4,3.4-7c-0.1-6,2-4.1,4.5-1.6C183.3,545,183,546,182.8,547z"/>
	<path class="st97" d="M297.8,663.1c3.5,1.5,7.5,1.5,11,3.3c4.1,2.2,6.6,5.6,8.7,9.5c1.4,6.8,0.8,13.1-5,17.8c0.7-3,1.4-5.9,2.1-8.9
		c2.3-7-1.6-13.9-9.9-17.4c-3-1.3-6.2-2.2-9.9-3.5C296.2,663.5,297,663.3,297.8,663.1z"/>
	<path class="st2" d="M276.5,715.9c4.6-1.4,9.1-2.9,13.7-4.3C286.2,714.6,281.7,716.1,276.5,715.9z"/>
	<path class="st98" d="M156.2,574.4c-3.5,2.7-6.6,6.2-11.7,5.1c3.2-2.8,6.5-5.5,9.7-8.3C155.1,572.1,153.4,574.7,156.2,574.4z"/>
	<path class="st79" d="M330.3,627.3c-3.7,1.9-3.5-1.2-4.1-3.2c1.8-1.3,2.8,0.4,4.1,1.1C330.3,625.9,330.3,626.6,330.3,627.3z"/>
	<path class="st99" d="M459.6,1160.2c0.9,0.9,2.4,1.4,3.6,2c3.8,1.9,7.8,0.1,11.8,1.2c6.1,1.6,12.4,3.3,18.6,3.2
		c12.7-0.2,24.2-6,36-10.1c8.2-2.9,16.3-7.5,22.8-13.2c7.5-6.5,15.5-12.7,21.8-20.6c6.1-7.7,10.4-16.5,15.7-24.8
		c0.7-1.2,1.6-3.1,0.2-4.4c-1-0.8-2.6-1.2-3.9-1.2c-2.2,0-1.9,2.1-2.3,3.6c-0.3,1.3,0,2.9-1.8,3.4c-2.6-2.7-0.1-6.3-1.3-8.8
		c-3.3-6.9-7-13.7-13.9-17.8c-1.4-0.9-3.6-0.5-4.2-2.6c-2.8-1.8-5.6-0.5-8.4,0l0,0c-6.9-2-14.6,0.5-17.9,5.9
		c-2.6,1.5-3.3,4.4-4.9,6.5c-6.7,8.5-6.3,17.5-2.3,26.9c3.9,8.9,6,17.4,2.8,27.8c-3,9.8-10.2,13.5-17.3,17.6
		c-9.7,5.6-20.6,6.3-31.6,3.9c-1.5-0.3-3-0.9-4.7-0.4c-5.8,2-10.8-2.1-16.3-2.4c-1.6-0.1-3.7-3.2-5.2-0.8
		C455.6,1157,458.2,1158.7,459.6,1160.2z"/>
	<path class="st100" d="M523.5,1076.9c-2.8,0.4-4.5-0.1-6.3-2.9c-2.9-4.5-4.9-4.1-8.9-0.4c-4.3,3.9-9.5,5.6-15.4,4.7
		c-2.3-0.3-4.5-1.1-6.7-1.2c-8-0.1-12.8-4.5-17.2-10.8c-2.6-3.9-2.1-8-1.8-11.3c0.7-9,2.6-18.1,13.1-21.9c1.8-0.6,4.1-2.1,5.7-3.9
		c1.2-1.2,3.4-2.6,5.5-0.6c0.6,0.5,1.7,1,2.4,0.8c7.4-1.6,13,1,18.6,6.1c3,2.7,6.3,4.9,8.2,8.8c1.2,2.4,2.7,0.7,4.1-0.5
		c2.7-2.3,5.6-4.6,9.7-3.8c1,0.2,2.2,0.3,2.5,1.5c0.3,1.2-0.7,1.9-1.6,2.4c-3.3,2-6.7,3.8-9.5,6.5c-1.5,3.3-2.1,7.1-4,10.2
		c-2.1,3.4-1.8,5.9,1.1,8.8C525,1071.6,527.4,1074.2,523.5,1076.9z"/>
	<path class="st101" d="M427.9,1044.2c-1.7,12.5-5.6,23.5-18.4,29.3c-3.2,1.4-5.1,4.8-9.4,4.7c-9.9-0.2-18.7-2.5-23-13.8
		c-3.8-10.1,0.8-21.8,9.3-29.4c8.5-7.6,18.2-6.8,28-6.6C419.6,1028.5,427.7,1038.7,427.9,1044.2z"/>
	<path class="st102" d="M623,1090.9c5.4-1.5,10.6,0.1,16.1,2c5.4,1.9,13.9-9.5,11.8-15c-3.5-9.2-10.2-11.4-19.7-8.1
		c-4.4,1.5-6.8,4.6-9.8,7.2c-1.2,1-2.4,2-3.6,3c-1.6,1.3-3.2,1.7-4.7,0.3c-1.5-1.5-0.2-2.7,0.7-4.1c6.2-9.5,15.5-13.7,26.2-14.8
		c8.7-0.9,18.4,10.8,17.8,19.5c-0.8,10.8-10.8,15.8-20.3,17.6c-6.9,1.4-11.4-3.5-17.4-3.4c-1.8,0-2.4-1.3-1.9-3
		C619.1,1089.4,620.9,1090.4,623,1090.9z"/>
	<path class="st103" d="M523.5,1076.9c1.3-2.5,1-4.5-1.4-6.3c-3.8-3-4.7-6.4-1.3-10.7c2.2-2.7,1.2-7.3,5-9.3
		c0.5,0.7-0.6,3.8,1.8,1.5c3-2.9,4-2.7,4.6,1.6c0.9,6,3.5,10.1,10.1,12.3c3.9,1.3,8.7,0.3,11.8,3.9c-6.9-0.9-12.6,2.1-17.9,5.9
		c-0.3-0.4-0.9-1.1-1-1.1C531.7,1077.3,527.3,1075.7,523.5,1076.9z"/>
	<path class="st56" d="M356.9,1134.6c6.1-6.2,6.8-6.1,11.3,1.7c3.8,6.6,11.2,9,18.7,6.6c5-1.6,8.2-5.2,11.6-8.8
		c2.1-2.2,4.6-2.8,7.2-1.8c3,1.2,1.7,3.6,1.1,5.9c-0.4,1.6,0.4,1.9,1.6,1c0.1-2.3,0.3-4.5,3.4-4.3c0.2-2.1,2.3-3.8-0.5-6.3
		c-6.7-6-12.5-5.4-16.7,2.7c-0.6,1.1-1.3,2.1-2,3.1c-6.2,8.9-17.9,8.1-22.7-1.6c-1.5-3.1-1.9-6.8-5-9.1c-0.8-0.6-1.3-1.7-2.5-1.6
		c-3.8,0.4-9,10.1-7.7,14.1C355.5,1135.7,356.2,1135.2,356.9,1134.6z"/>
	<path class="st104" d="M548.4,1062.3c-5.8,0-9.8-3-9.8-7.3c0-4.2,7.3-11,12-11.1c4.3-0.1,9.8,4.7,10.1,8.6
		C560.9,1057.1,554.5,1062.3,548.4,1062.3z"/>
	<path class="st105" d="M380.5,1138.3c3.9,0.1,8.9-4.3,9.1-8.1c0.3-4.2-5.5-9.8-10-9.8c-4.3,0-8.6,4.1-8.6,8.3
		C370.9,1133,376.1,1138.2,380.5,1138.3z"/>
	<path class="st106" d="M415.5,1007.6c-0.1,2.3-1.1,4-3.2,5c-4.5,2-8.9,4.1-13.5,5.8c-1.7,0.6-4.1,0.2-5-1.7c-0.9-2,0.6-3.2,2.3-4.1
		c5.5-2.8,10.6-6.5,17.1-7.1C415.1,1005.3,415.7,1005.9,415.5,1007.6z"/>
	<path class="st107" d="M510.6,1003.1c-0.2,10.7-0.2,10.7-9.6,6.4c-0.8-0.4-1.8-0.5-2.3-1.1c-1.1-1.3-4-1.6-3-4.3
		c0.5-1.2,0.3-3.5,2.1-3.1c2.1,0.5,4.8-2.2,6.4,1.2C505.7,1005.2,508.2,1004.4,510.6,1003.1z"/>
	<path class="st103" d="M562.6,1069.9c-2.8-1.4-5.6,0.8-8.4,0C557,1067.3,559.8,1067.4,562.6,1069.9z"/>
	<path class="st35" d="M510.1,1207.4c0.9-0.4,2.5-0.6,3.4-1.5c2.8-2.8,5.3-5,10-3.8c2.7,0.7,2.9-3,1.9-4.6c-1.2-1.9-3.8-2.6-6.1-1.9
		c-4.6,1.5-9.1,3.2-14,3c-1.1,0-2.6,0.3-2.9,1.7C501.9,1202.8,506.9,1207.5,510.1,1207.4z"/>
	<path class="st108" d="M492.6,1230.4c1,1.2,3.1-2.1,3.4-4c0.3-2.6-3-8.4-4.9-8.7c-1.5-0.3-8.3,3.3-8.1,4.4c0.5,2.3,1,4.7,2.2,6.7
		C486.8,1231.4,490.1,1227.5,492.6,1230.4z"/>
	<path class="st109" d="M505.3,1222.6c1.8,0.6,3.5,1.5,5.1,1c1.4,0.1,2.5,0.4,3.5,0.2c2.4-0.5,3.1-2.5,3.9-4.5
		c0.5-1.3-0.3-2.2-1.3-2.3c-3.4-0.6-6.8-1.1-10.3-1.3c-2.5-0.2-3.8,2.2-4.2,3.8C501.4,1221.1,503.5,1222.1,505.3,1222.6z"/>
	<path class="st35" d="M587.1,1177.1c2.7,0.1,2.8-2.2,3-4c0.2-1.4,0-3-2-2.9c-3,0.1-1.6,3-2.7,4.3
		C585.1,1176,585.8,1177.1,587.1,1177.1z"/>
	<path class="st110" d="M327.1,1084.6C327.1,1084.6,327.2,1084.6,327.1,1084.6c-0.1-3.6-2.2-5.4-5.5-6.5c-3.8-1.3-7.5-0.8-10.6,1.1
		c-7.1,4.4-14.8,7.7-21.9,12.1c-2.1,1.1-4.1,0.6-5-1.3c-1.4-2.8,0.8-4.9,2.5-6.9c1.7-1.4,3.2-2.9,3.7-5.1
		c7.9-6.7,13.7-14.6,16.1-24.9c1.4-5.9,2.6-11.8,1.9-17.8c-0.4-3.6-1-7.5-4.2-10.1c-1.1-1.6-2.5-2-4-0.7c-1.2,1.1-1.2,2.4-0.6,3.9
		c2.2,5.3,1.7,11.1,1.8,16.5c0,4.6-0.3,9.7-3,13.7c-3.9,5.8-8.3,11.2-13.3,16.1c-4.5,4-7,9.1-8.3,14.9c-0.4,7.9,0.3,8.6,8.2,9.4
		c5.9-1.9,12.1-2.8,17.4-6.2c3.4-2.1,7.4-3.1,10.6-5.7c1.8-1.4,4.1-1.2,5.9,0.2c1.8,1.3,0.4,3.2,0.3,4.9c-0.3,4.2-3,7-5.6,9.8
		c-4.2,2.3-6.2,6.7-9.5,9.9c-3.4,2.7-6.9,5.4-11,6.9c-1.9,0.7-2.8,1.7-2.3,3.4c0.6,2,2.1,1.1,3.4,0.6c1.7-0.7,3.6-1.3,5.4-1.9
		c9.3-7,18.9-13.6,25.3-23.7C327.5,1093.3,328.5,1089.2,327.1,1084.6z"/>
	<path class="st111" d="M304.1,1025.3c-2.4-1.8-5.2,0.3-3.8,1.6c3.5,3.2,0.7,6.5,1.7,9.4c2.3,7.1,1.1,14.2-1.4,20.4
		c-3,7.5-7.9,14.3-15.5,18.3c0.1-0.7,0.8-2.2-0.5-1.8c-4.9,1.5-4.6-1.5-4.8-4.7c-0.4-9.7,2.4-18.8,4.3-28.1c1-4.9,1-10.1,4.4-14.3
		C292.2,1021.2,300.2,1020.7,304.1,1025.3z"/>
	<path class="st33" d="M327.2,1084.6c-3.4-6-11-8-16.8-3.8c-6.6,4.8-14.5,7.3-21.1,12c-6.3-1.9-3.6-6.6-3.4-10.6
		c1.5-1.4,2.9-2.8,4.4-4.2c0.6,0.7-1.1,3.9,1.9,1.8c1.8-1.3,3.2-3.2,5-4.6c1.7-1.3,3.5-4.3,5.4,0c0.4,1,2,0.9,2.9,0.4
		c2.8-1.7,6-1.6,9-2.3C324.1,1071.3,328.1,1074.8,327.2,1084.6z"/>
	<path class="st112" d="M676.8,1172.5c3.4,2.2,3.5-1.9,5.3-2.8c0.2-0.1,0.7,0.2,1,0.3c2.7-10.3,4-21.2,10.2-30.1
		c2.1-3,1.9-8.7,7.6-8.7c-0.7-1.8-3.1-2.2-3.1-4.6c0-2.9-2.5-3.6-4.7-4c-4-0.8-6.6,1.4-8.7,4.4c-8,11.2-10.2,24.2-11.6,37.4
		C672.4,1167.5,674,1170.6,676.8,1172.5z"/>
	<path class="st113" d="M723.1,1165.6c-0.4-2.7-2-3-4.1-2.1c-5.8,3.8-11.4,7.9-18.7,8.7c-0.9,0.1-1.6,1.3-2.4,1.9
		c4.1-0.3,7.9-2.8,12.2-2.1c-1,0.8-2.1,1-3.1,1.5c-1.8,1-5.7,0.6-5.1,3.3c0.7,3.1,4.1,4,7.3,3.6c1-0.1,2-0.8,3-0.8
		c1.5,0.1,0.7,1.2,0.5,1.9c0.9-0.3,1.7-0.6,2.6-0.9c2.8-4.8,5.4-9.7,7.8-14.6C723.1,1166,723.1,1165.8,723.1,1165.6z"/>
	<path class="st34" d="M725.1,1108.1c-2.8,3.3-2.8,5.9-1.3,8.7C724.2,1114.3,724.6,1111.8,725.1,1108.1z"/>
	<path class="st110" d="M758.9,995.9c0.7,2.5,1.4,5,2,7.6c1,4.1-0.5,5.9-4.7,5.1c-7-1.4-14-2.6-20.9-4.3c-4.8-1.2-10.2-1.6-15.3-2.3
		c-2.6-0.4-4.4,1.4-6.2,2.4c-4.5,2.3-9.7,3.8-12.7,8.5c-1.3,0.4-1.8-0.4-1.9-1.5c-2.4-6.2,2.7-8.2,6.5-9.7c3.8-1.5,7.4-3.6,11.3-4.8
		c5.8-0.7,11.7-0.4,17.5,0.1c4.9,1.3,10,1.6,14.6,4.1c2.1,1.2,3.3,0.1,3.1-2.3c-0.4-4.9-2.7-8.9-5-13.1c-2.9-5.3-7.2-8.7-12.9-10.5
		c-0.8-1.1-1.5-2.3-0.4-3.6c1.4-3.8,4.8-3,6.3-1.3c2.1,2.3,4.9,3.2,7.1,5c5.9,4.8,7.9,11.8,10.7,18.4
		C758.3,994.4,757.9,995.4,758.9,995.9z"/>
	<path class="st114" d="M733.9,971.5c0.4,1,0.8,1.9,1.2,2.9c1.1,2.2-0.7,3.1-1.8,4.4c-1.5,1.7-2.6,3.7-3.1,6c-0.9,5,0.4,7.3,5.6,9.6
		c1.4,0.6,3.6,1.2,3.2,2.9c-0.6,2.3-2.7,1.1-4.3,0.8c-5.9-0.4-11.8-0.8-17.8-1.1c1.3-2.1,3.7-0.4,5.3-1.4c-0.9-2.6-6-0.5-5.4-4.9
		c0.4-2.8,2.1-4.7,3.9-6.6c0.5-0.5,0.9-1.1,1.2-1.7C724.7,977.2,727.6,972.5,733.9,971.5z"/>
	<path class="st39" d="M699.2,1011.2c0.6,0.5,1.3,1,1.9,1.5c-1.8,2.4-3.9,4.5-5.2,7.3c-1.1,2.2-4.1,2.1-6.7,2.1
		c-5.9,0-11.7,0.1-17.3,2.8c-5.4,2.6-7.8,6.2-6.4,12.1c0.5,2.1,0.8,4.1,0.8,6.2c-2.7-0.1-4-2.7-6.1-3.8c-1.4-0.7-1.2-2.1-0.1-3.1
		c1.7-1.6,2.9-3.6,3.5-5.8c2.3-7.7,8.5-8.9,15.1-9.5c3.8-0.4,7.6-0.6,11.4-1.2c2.1-0.3,4.1-1.2,4.9-3.5
		C695.7,1014.1,697.8,1013,699.2,1011.2z"/>
	<path class="st115" d="M720.1,1044.3c-11.3,2.4-22.5-0.8-33.8-0.1c-0.2-1.2-0.5-1.9-2-1.6c-4.9,1-7.9-2.4-10.4-5.6
		c-2.6-3.3-1.3-6.7,2.7-8.4c6-2.6,12.3-1.5,18.5-1.3c7.4,0.2,7.7-0.1,8.1-7.4c0.1-2.9,2.2-4.7,3.2-7c0.6-1.3,1.7-1.1,2.6-0.3
		c1.2,1.1,2.4,2.1,4,2.3c-1.3,1.4-1.9,2.7-0.4,4.5c1.4,1.8,2.6,0.9,4.1,0.3c0.7-0.3,1.6,0.2,2.5,0.3c1.7,1,3.7,0.7,5.5,1.5
		c0.9,0.4,2.3,0.3,2.2,1.7c-0.1,1.8-1.7,1.4-2.8,1.4c-1.2,0-2.4-0.3-3.7-0.4c-5.2-0.6-8,0.8-8.9,4.4c-0.9,3.5,1.4,8.5,4.9,10.2
		c1.1,0.6,2.3,0.8,3.5,1.1C723.6,1041.1,722.6,1042.7,720.1,1044.3z"/>
	<path class="st116" d="M314.6,1103.2c-3.5,3-6.9,5.9-10.4,8.9c0.1-1.4,2-2.1,1.5-4.3c-4.7,3.5-9.6,2.4-12.8-1.3
		c-4-4.6,0.7-7.4,4.4-10.1c-4.4,0.9-8.1,3.1-12.3,2.7c5.5-2.8,11.9-3.8,17.1-7.3c2.3-0.6,5.3-2.5,3.4,2.7c-1.4,3.7,1.3,6,5.7,4.9
		C315.1,1098.5,316,1099.6,314.6,1103.2z"/>
	<path class="st117" d="M330.9,1126.3c2.1-0.3,4.3-1,3.2-3.5c-1.1-2.5-3.4-2-5.3-0.5c-2,1.6-4.6,1.4-6.8,2.4
		c-5.4,2.5-10.4,6.6-16.9,4.2c-3.5,0.7-3.7,2.4-1.1,4.5c1.2,0.9,2.9,1.2,4.3,1.8c8.1,0.5,15.2-1.8,21-7.6
		C329.9,1127.1,330.3,1126.3,330.9,1126.3z"/>
	<path class="st118" d="M334.8,1134.5c1.7-3.3,0.8-5-3-4.8c-1.8,0.1-3.3,0.4-2.5-2.2c-4,0.9-7.2,3.8-11.4,4.9
		c-3.1,0.8-6.8,0.7-9.7,2.8c0.8,2.3-1.1,5.2,2.4,6.9C318,1145.7,331,1141.8,334.8,1134.5z"/>
	<path class="st119" d="M718.9,1163.6c1.3,0.3,2.8-0.4,2.9,2.4c0,0.9,0.1,1.6,0.3,2.3c1.5-3,2.9-5.9,4.3-8.9
		C723.9,1160.8,721.4,1162.2,718.9,1163.6z"/>
	<path class="st120" d="M720.1,1044.3c0.8-1.6,2.7-3.1-1.3-3.3c-5.9-0.3-8.2-4.8-9.2-9.8c-1.1-5.4,4-9.8,9.8-8.8
		c2.1,0.4,4.2,0.8,6.4,0.8c-2-1.9-5-1.1-6.8-3.3c8.1-0.2,13.6,4.3,18.2,10.1c3.7,4.6,3.2,5.9-1.8,8.8
		C730.8,1041.7,725.1,1042.1,720.1,1044.3z"/>
	<path class="st121" d="M158.4,608.2c1.8-0.8-1.3-4.9,2.8-4.2c2.3,0.4,4.5,0.8,4.3,4.1c-0.2,3,2.7,2.1,4.1,2.9
		c1.6,0.9,4.3,0.5,4.5,3c0.2,2.7-2.3,2.4-4,3c-1.5,0.6-2.5,2.3-4.6,1.6c-4.6-1.7-9.3-3-13.8-4.8c-0.6-0.2-0.4-2.2-0.6-3.4
		c2.1-1.8,4.2-0.5,6.3,0C160.7,611.1,157.1,608.4,158.4,608.2z"/>
	<path class="st122" d="M174,596.4c1-2.7,2.1-5.4,3.1-8c-2.5-1.5-2.9,1.6-4.6,1c-2.2-0.8-0.1-2.9-1-4c-1.9,0.1-2.9,1.5-4.2,2.3
		c-0.8,0.5-1.7,0.7-2.3-0.1c-0.5-0.7-0.9-1.6-0.9-2.3c0-0.9,1-1.8,1.8-1.4c3.5,1.5,5-1.5,7.2-2.9c1.4-1.1,2.2-0.6,2.5,1
		c0.2,0.8-0.2,2.2,0.7,2.3c6.1,1,3.4,4.9,2.8,8.1c-2,3-2.8,6.9-6.1,9c-2.9,2-6.1,2.9-9.4,1.2c-2.3-1.1-4-2.9-3.2-5.9
		c2.4-0.5,3.2,2.5,5.6,2.3c0.2-3,0.5-6.1,4.4-2.1C171.7,598.1,173,597.6,174,596.4z"/>
	<path class="st123" d="M174,596.4c-3.4,4.3-3.4,4.3-6.1-0.5c-1.8,1.4,2.1,3.8-0.6,4.6c-3.4,1-4.8-2.2-6.8-3.9
		c0.9-3,1.7-4.8,6.1-3.7C169.5,593.7,172,594.2,174,596.4z"/>
	<path class="st124" d="M158.4,608.2c0.5,1.7,4.3,0.6,3.3,3.1c-0.9,2.3-3,0.5-4.6,0.2c-2-0.4-4.1-0.7-6.1-1.1
		c-1.6-0.4-3.9-0.6-2.7-3.1c0.7-1.4,2-2.1,3.9-1.2C154.1,607,156.3,607.5,158.4,608.2z"/>
	<path class="st77" d="M179.2,592.3c0.2-1.7,0.4-3.4,0.5-5.2c0-1.1-0.5-2.6-1.5-2.2c-3.8,1.5-3.4-0.1-2.7-2.9
		c0.4-1.4-1.3-1.2-2.3-1.2c0.5-0.4,1.3-1.2,1.6-1c2.6,1.2,3.2,4.3,5.5,6C181.2,586.6,181.6,590.4,179.2,592.3z"/>
	<path class="st125" d="M257.6,711.7c-7.7-6.8-8.9-13.3-4.2-22.2c2.4-4.5,5.6-8.3,9.5-11.6c4.7-5.1,14.8-9.4,23.4-10
		c-1.1-0.3-2.4,0.4-3.3-0.7c5.3-1.6,10.7-1.9,16,0c-1.7,0.1-3.5,0.2-5.2,0.3c5.9,0.9,11.1,3,14.9,8c1.4,1.9,2.5,3.9,2.6,6.2
		c0.1,1.5-1.1,0.7-1.8,0.4c-0.2-0.1-0.4-0.1-0.5-0.3c-7.8-12.1-19.1-11.6-30.8-8c-8.1,2.4-14.9,7.1-19.7,14.2
		c-5.4,8-5.2,13.4,0.9,20.9c0.7,0.8,1.3,1.6,1.4,2.8C259.7,713.4,258.6,711.6,257.6,711.7z"/>
	<path class="st68" d="M282.9,667.2c1.7,0.1,3.5,0.2,5.2,0.3c-9.4,1-17.3,5.8-25.2,10.3c-0.4-0.4-0.8-0.8-1.2-1.2
		C267.8,671.4,275.1,668.9,282.9,667.2z"/>
	<path class="st126" d="M260.7,711.7c-8.6-6.3-10.1-13.1-4.9-22.2c7.5-13.2,25.7-21.7,40.4-18.8c6.4,1.3,11.3,4.6,13.2,11.3
		c1.1,9.3-4.1,16.1-10.5,21.2C287.8,712,275.2,717,260.7,711.7z"/>
	<path class="st127" d="M134.2,642.2c-2.3-2.1,0.2-3.1,1.2-4.1c4.6-5,13.4-6.3,20.4-3.3c3,1.3,5.6,3.5,9,4.1
		c7.7,7.8,14.3,16.4,16.3,27.6c1.7,9.8-1,19.6-9.9,22.3c-0.4-0.4-0.7-0.8-1.1-1.2c0-0.4,0.1-0.7,0.3-1c9.4-10.3,10.2-20.3,2.6-32.2
		c-3.6-5.7-8.1-10.7-14.1-14c-7.3-4-14.8-5.8-21.9,0.9C136.3,641.9,135.4,642.4,134.2,642.2z"/>
	<path class="st128" d="M134.2,642.2c6.9-7.4,14.2-9,23.1-4.3c13.5,7.2,21.7,18.2,22.1,34c0.2,7.1-2.5,12.7-9.4,15.6
		c-15.8,5.1-36.5-13.9-38-30.8C131.4,651.7,132.9,647,134.2,642.2z"/>
	<path class="st129" d="M309.4,643.3c-3.3,2.7-5.9-0.6-8.8-1.2c-4.2-0.8-8.3-2.8-12.6-3.4c-2.7-0.3-4.7-0.9-5.9-3.3
		c-0.8-1.5,0.1-2.8,1.2-3.7c2.5-2,4.5-0.6,6.5,1c0.4,0.3,0.9,0.5,1.4,0.7c2.3-0.6,4.8-0.9,7-1.7c0.8-0.2,1.5-0.1,2.2,0.3
		c0.8,1.4,0.5,4.2,3.4,3c3-1.2,1.8,3.5,4.3,2.8c0.4,0.3,0.7,0.6,1.1,0.9C310.5,640.3,310.5,641.8,309.4,643.3z"/>
	<path class="st130" d="M304.1,618.8c2.7-1.2,4.5-0.7,5.2,2.6c0.9,4,2.3,8,3.5,11.9c1.4,4.6-1.2,3.1-3.4,2.2
		c-3.1-0.3-3.5-2.9-4.2-5.1c-0.7-2.3-1.4-4.5-2.3-6.7C302.2,621.8,302,620,304.1,618.8z"/>
	<path class="st131" d="M302.4,653.7c-4.7,0.6-9-2.1-13.1-5.1c-1.2-0.9-3.1-2.1-1.6-3.7c1.3-1.4,2.3,0.6,3.3,1.4
		c4.4,4.1,9.4,5.9,15.3,4.6c1.3-0.3,3.3-1.2,3.5,0.7c0.3,2-1.9,2-3.5,2.1C305.3,653.8,304.2,653.7,302.4,653.7z"/>
	<path class="st132" d="M301,632.6c-0.7,0-1.3-0.1-2-0.1c-1.5-0.7-0.2-2.4-1.2-3.2c-0.6-2.1-3.8-3.6-1.2-6.3c3.8-2.1,6.2-1,7.2,3.2
		c0.4,1.7,1.3,3.3,1.2,5.1C304.5,634.2,303.1,634.5,301,632.6z"/>
	<path class="st133" d="M309.4,643.3c0-1.5,0-3,0-4.5c1.8,0.3,3.7,0.6,5.5,0.9c2.6,0.4,1.2,2.4,1.5,3.7c0.3,1.5-0.1,2.9-1.8,3.1
		c-1.2,0.2-2.9,0.4-3.1-1.7C311.4,643.3,310.6,643.1,309.4,643.3z"/>
	<path class="st134" d="M304.3,631.4c-0.5-1.5-1.2-2.9-1.4-4.4c-0.5-3.9-2.5-5.2-6.2-4.1c2.5-1.4,5-2.8,7.4-4.2
		c-1.7,4.3,2.2,7.5,2.2,11.5c0.2,0.3,0.4,0.6,0.3,1c-0.1,1.1,0.7,2.9-0.7,3.2C303.7,634.7,305.2,632.3,304.3,631.4z"/>
	<path class="st135" d="M304.3,631.4c0.5,0.8,1,1.6,1.8,2.8c0.1-1.7,0.2-2.8,0.2-3.9c1.2,1.7,0.9,4.2,3.2,5.3
		c-1.3,0.3-3.3,0.3-1.1,2.3c-2.8-0.4-5.6-0.9-8.2-1.5c-3.5-0.9-0.4-2.6,0.9-3.7C302.1,632.4,304.1,634.5,304.3,631.4z"/>
	<path class="st136" d="M291.4,630.4c-1.1-0.4-2.5-0.6-2.6-2.1c0-1.2,1.3-1.4,2.2-1.8c1.2-0.6,2.4-0.5,3.2,0.7c0.6,1,1,2.1,1.5,3.2
		C294.2,631.3,292.8,631.1,291.4,630.4z"/>
	<path class="st135" d="M291.4,630.4c1.4,0,2.8,0,4.3,0c1.3,0.7,2,0.3,2.2-1.1c1.2,0.8,0.7,2.2,1.2,3.2c-2.5,1.1-5,1.4-7.7,1
		c0.8-0.5,1.7-1,2.5-1.5C293,631.5,292.2,631,291.4,630.4z"/>
	<path class="st137" d="M263.1,615.9c-12.6,9.4-35.2,7.3-46.8-4.4c0.3-0.9,0.8-1.4,1.7-1.5c1.6,0.1,3,1,4.3,1.8
		c11.4,7.1,23.3,7.9,35.7,2.9c1.1-0.5,2.3-1,3.6-0.6C262.4,614.4,262.9,615,263.1,615.9z"/>
	<path class="st138" d="M217.5,610.3c-0.4,0.4-0.8,0.8-1.2,1.2c-5.6-4.3-9-10-10.7-16.8c-1-10.5,3.1-18.6,11.9-24.4
		c2.6-1.5,5.5-2.6,8.5-3.1c1.2-0.8,2-0.7,2.3,0.9c-2.2,2.4-5.5,3-8.2,4.5c-11.4,6.3-14.3,21.7-6.1,31.8
		C215.4,606.1,218,607.3,217.5,610.3z"/>
	<path class="st139" d="M263.1,615.9c-0.4-0.5-0.9-0.9-1.3-1.4c0.7-3.4,4.4-4.4,5.8-7.3c3.9-7,4.7-14.1,1-21.4c-0.5-1.1-1-2.2-1-3.5
		c0.2-0.8,0.4-1.5,1.5-1.3c2,2.5,3.5,5.2,4.5,8.2c3.6,5.8,2.3,14.9-3.1,20.4C268.3,612,265.9,614.2,263.1,615.9z"/>
	<path class="st140" d="M270.5,609.5c3.9-6.4,5.2-13.1,3.1-20.4c0.4-0.7,0.7-1.4,1.1-2.2c3.9,8.5,2.3,16.3-3.1,23.6
		C271.2,610.2,270.8,609.8,270.5,609.5z"/>
	<path class="st141" d="M269.1,580.9c-0.4,0.4-0.8,0.7-1.1,1.1c-1.8,0.2-3-0.9-4.3-1.7c-8.2-8.9-18.8-11.3-30.3-11.4
		c-1.8,0-3.8,1-5.3-1c-0.7-0.3-1.3-0.6-2-0.8C241.1,563.3,259.3,567.8,269.1,580.9z"/>
	<path class="st142" d="M538.1,1137.7c-1.1,2.8-2.8,5.4-3.7,8.5c3.5,0.9,3.5-3.3,6.1-3.4c3.7-0.2,6.6-2.3,8.6-5.2
		c5.3-7.7,7.7-16,4.8-25.2c-1.3-4.1-1.7-8.5-4.8-12c-0.8-0.9-1.9-2.8-0.6-4.4c1-1.2,2.3-0.9,3.3,0c4.1,3.6,7.2,8.1,8.6,13.2
		c1.3,5.1,2.6,10.4,2.7,16.1c1.4-2.7,5.6-2.9,5.6-6c-0.1-5.8,4.8-9.5,5.4-15.3c0.6-5.6,0.9-12.8-2.9-17.3
		c-6.8,3.4-14.1,1.9-21.2,1.6c-6-0.2-10,1.9-12.5,7.5c-1.2,2.7-1.9,5.9-4.6,7.8c2.1,5.6,6.4,10.2,6.6,16.9
		C539.7,1126.4,540.4,1131.9,538.1,1137.7z"/>
	<path class="st143" d="M532.2,1102.4c-2.6-6.6-0.8-14,2.9-18.1c3.7-4.1,8.2-9.8,16.2-9.2c4.3,0.4,8.1,0.6,12.2,2.3
		c3.3,1.4,4.7,3,5.6,5.9c-0.5,3.4-3.4,3-5.6,3.4c-3.8,0.6-7.7-0.3-11.5-0.6c-9-0.7-12.8,2.1-15.3,10.8
		C536.1,1099.4,535.8,1102.2,532.2,1102.4z"/>
	<path class="st144" d="M532.2,1102.4c1.9-1.1,2.9-2.7,3.1-5c1.1-9.1,6.9-13.6,16.2-12.8c5.1,0.4,10.3,2.2,15.4,0.1
		c0.8-0.3,1.5-0.8,2.2-1.2c0.7,1.1,1.4,2.2,2,3.3c-0.2,1,0.1,1.8-1.7,2.4c-6.9,2.3-13.8,0.6-20.6,0.5c-4.8,0-8.2,1.4-9.7,6.1
		c-1.1,3.3-4.9,5.7-2.8,9.9c-2.1,0.5-1.9-2.1-3.5-2.1C532.7,1103.2,532.5,1102.8,532.2,1102.4z"/>
	<path class="st30" d="M497.1,1070.6c-3.5,1-7.3,0.5-11.1,0.1c-7.8-0.9-14.1-9.9-13.6-18.4c0.2-3.8,2.8-4.8,6.3-3.1
		c2.8,1.4,5.8,2.1,8.1-0.7c2.6-3.2,7.4-4.9,7.2-10.1c0-0.9,0.7-2.2,1.4-1.8c4.5,2.9,10.4-0.6,14.7,4.5c6.1,7.2,6.3,13.6,0.2,21
		c-2.3,2.8-4.4,5.6-7.6,7.5C501,1070.6,499.5,1072,497.1,1070.6z"/>
	<path class="st41" d="M400.1,1036c3.9-1.2,7.6-0.4,11.1,0c9.6,1.3,12.9,9,8.3,17.8c-4,7.6-9.9,13.3-17.5,17.4
		c-3.5,1.9-13.9-2.1-16-5.4c-2.8-4.4-5.2-8.6-3.2-14.1c1-2.8,1.6-4.7,5.4-2.4c4.8,2.9,12.8,0.4,15.7-4.1c0.6-1-0.4-1.6-0.4-2.4
		C403.4,1040.1,400.6,1038.9,400.1,1036z"/>
	<path class="st145" d="M314.6,1103.2c-0.3-1.5,0.7-4.8-2.8-2.5c-3.4,2.2-5.5,0.2-7.6-2c-2.4-2.5-0.8-4.6,1.5-6.9
		c-1.6,0-2.6,0-3.7,0c5.6-1.8,9.6-7.9,16.6-6.3c2.4,0.5,3,1.2,2.7,3.8C320.6,1094.8,318.8,1099.6,314.6,1103.2z"/>
	<path class="st25" d="M285.9,1082.3c2.1,0.3,3.1,1.6,1.6,3.1c-2.5,2.7-2.4,4,1.2,5.1c0.4,0.1,0.4,1.6,0.6,2.4
		c-2.9,1.1-5.6,0.6-6.8-2.2C281,1087.1,283.6,1084.6,285.9,1082.3z"/>
	<path class="st146" d="M734.7,998c1.2-0.1,2.4-0.3,3.5-0.4c0-1-0.5-1.5-1.2-1.6c-3.6-0.7-7.6-1.1-8.3-5.7
		c-0.8-5.2,0.1-10.1,4.7-13.4c1-0.7,1.5-1.4,1.7-2.4c10.9,1.7,13.5,11.4,18,19.1c1.1,1.9,0.9,4.7,0.9,7c-0.1,3.4-2.7,3.1-4.6,2.1
		C744.7,1000.3,739.5,999.8,734.7,998z"/>
	<path class="st147" d="M228,567.9c8.5-0.6,16.9-0.8,25,3.1c4.6,2.2,8.8,4.8,12,8.9c0.1,1.7-1.1,1.5-2.1,1.3c-4-0.8-5.6,1.4-5.6,4.8
		c0,7.1,2.9,13.4,6,19.6c1.2,2.3,4.1,0,4.9,2.4c-1.4,2.9-4.1,4.4-6.3,6.4c-15.6,7.9-30.3,6.2-44.2-4.2c-6-6-10.6-12.5-9.5-21.6
		C209.2,578.3,215.9,571.2,228,567.9z"/>
	<path class="st148" d="M268.1,608.1c-3.5,1.2-5.8-0.1-7.1-3.5c-1.8-4.9-4.1-9.6-5.3-14.7c-1.8-7.5,1.3-10.5,9.2-10
		c1,0.7,2,1.4,3.1,2.1C273.3,590.7,274.6,599.4,268.1,608.1z"/>
</g>
</svg>
